<svg xmlns="http://www.w3.org/2000/svg" xmlns:v="https://svgstorm.com"
viewBox = "0 0 500 500"
width="500"
height="500">
<g fill="None" fill-opacity="0.0" stroke="#000000" stroke-opacity="0.00" stroke-width="0.3"><path d="
M 0.00 500.00 
L 500.00 500.00
L 500.00 0.00
L 0.00 0.00
L 0.00 500.00
M 267.00 139.00 
C 268.00 139.00 269.00 139.03 270.00 139.00
C 275.99 138.84 280.91 140.60 286.00 142.00
C 289.02 142.48 291.13 143.02 294.00 144.00
C 299.52 145.89 305.42 147.33 310.00 151.00
C 310.47 151.11 311.00 151.00 311.00 151.00
C 318.61 153.99 325.78 159.69 332.00 165.00
C 336.32 168.69 342.04 173.14 345.00 178.00
C 345.33 178.55 345.64 179.55 346.00 180.00
C 348.85 183.56 351.54 187.03 354.00 191.00
C 356.15 194.47 357.72 197.31 359.00 201.00
C 360.27 203.65 362.26 205.86 363.00 209.00
C 363.11 209.47 363.00 210.00 363.00 210.00
C 365.62 213.05 365.94 217.14 367.00 221.00
C 368.56 226.66 369.77 231.93 370.00 238.00
C 371.07 245.51 371.06 254.56 370.00 262.00
C 369.82 266.66 368.83 270.60 368.00 275.00
C 366.95 280.52 365.00 285.14 363.00 290.00
C 362.15 292.89 361.35 295.20 360.00 298.00
C 359.09 299.89 357.86 301.45 357.00 303.00
C 356.06 305.10 355.27 306.95 354.00 309.00
C 351.21 313.51 348.31 317.81 345.00 322.00
C 341.25 326.75 336.53 331.13 332.00 335.00
C 326.24 339.92 319.78 344.83 313.00 348.00
C 311.89 348.52 311.15 348.64 310.00 349.00
C 305.70 351.04 301.71 353.39 297.00 355.00
C 293.17 356.31 290.06 357.35 286.00 358.00
C 283.44 358.70 281.08 359.53 278.00 360.00
C 274.36 360.56 270.93 361.00 267.00 361.00
C 261.33 361.55 254.60 361.54 249.00 361.00
C 245.69 361.00 243.01 360.48 240.00 360.00
C 236.86 359.50 234.43 359.97 232.00 358.00
C 231.51 357.92 231.00 358.00 231.00 358.00
C 227.39 357.86 222.61 356.24 220.00 354.00
C 219.51 353.92 219.00 354.00 219.00 354.00
C 217.27 353.89 216.09 353.13 215.00 352.00
C 214.50 351.97 214.00 352.00 214.00 352.00
C 205.21 349.94 197.86 343.26 191.00 338.00
C 184.83 333.27 175.66 327.50 172.00 320.00
C 171.80 319.60 172.00 319.00 172.00 319.00
C 168.77 316.89 166.95 313.16 165.00 310.00
C 149.42 284.84 144.45 256.30 150.00 227.00
C 150.47 224.54 151.42 222.04 152.00 220.00
C 152.64 216.27 153.69 213.54 155.00 210.00
C 155.85 207.70 156.51 205.86 158.00 204.00
C 158.11 203.53 158.00 203.00 158.00 203.00
C 158.73 199.90 160.57 198.40 162.00 196.00
C 162.97 193.95 163.75 192.03 165.00 190.00
C 171.99 178.71 181.53 167.13 193.00 160.00
C 193.36 159.78 194.00 160.00 194.00 160.00
C 198.03 153.82 209.31 149.26 216.00 147.00
C 217.40 146.53 218.57 146.38 220.00 146.00
C 221.18 145.55 222.55 144.50 224.00 144.00
C 225.48 143.49 226.39 143.27 228.00 143.00
C 234.30 141.18 240.78 138.81 248.00 139.00
C 249.00 139.03 250.00 139.00 251.00 139.00
C 256.08 137.88 261.98 137.90 267.00 139.00 Z"/>
</g>
<g fill="None" fill-opacity="0.0" stroke="#FEFEFE" stroke-opacity="0.02" stroke-width="0.3"><path d="
M 251.00 139.00 
C 256.33 139.00 261.67 139.00 267.00 139.00
C 261.98 137.90 256.08 137.88 251.00 139.00 Z"/>
</g>
<g fill="None" fill-opacity="0.0" stroke="#A8A9A6" stroke-opacity="0.35" stroke-width="0.3"><path d="
M 228.00 143.00 
C 234.63 141.88 241.79 140.11 248.00 139.00
C 240.78 138.81 234.30 141.18 228.00 143.00 Z"/>
</g>
<g fill="None" fill-opacity="0.0" stroke="#1F2221" stroke-opacity="0.98" stroke-width="0.3"><path d="
M 228.00 143.00 
C 226.39 143.27 225.48 143.49 224.00 144.00
C 222.61 144.66 221.75 145.54 220.00 146.00
C 218.57 146.38 217.40 146.53 216.00 147.00
C 208.52 150.52 201.16 155.54 194.00 160.00
C 194.00 160.00 193.36 159.78 193.00 160.00
C 189.48 165.40 182.53 168.93 178.25 174.25 C 173.96 179.56 169.02 184.81 165.00 190.00
C 163.75 192.03 162.97 193.95 162.00 196.00
C 160.82 198.50 159.61 200.99 158.00 203.00
C 158.00 203.00 158.11 203.53 158.00 204.00
C 157.43 206.43 155.99 208.03 155.00 210.00
C 153.69 213.54 152.64 216.27 152.00 220.00
C 151.53 222.71 150.69 224.77 150.00 227.00
C 144.45 256.30 149.42 284.84 165.00 310.00
C 167.20 312.85 170.69 315.38 172.00 319.00
C 172.00 319.00 171.80 319.60 172.00 320.00
C 179.05 324.93 184.44 332.93 191.00 338.00
C 198.16 343.54 207.23 346.57 214.00 352.00
C 214.00 352.00 214.50 351.97 215.00 352.00
C 216.73 352.11 217.91 352.87 219.00 354.00
C 219.00 354.00 219.51 353.92 220.00 354.00
C 223.30 354.54 228.55 356.01 231.00 358.00
C 231.00 358.00 231.51 357.92 232.00 358.00
C 234.74 358.45 237.70 359.39 240.00 360.00
C 243.01 360.48 245.69 361.00 249.00 361.00
C 255.00 361.00 261.00 361.00 267.00 361.00
C 270.93 361.00 274.36 360.56 278.00 360.00
C 280.35 359.39 283.22 358.44 286.00 358.00
C 290.06 357.35 293.17 356.31 297.00 355.00
C 301.11 353.08 305.43 350.45 310.00 349.00
C 311.15 348.64 311.89 348.52 313.00 348.00
C 319.04 344.15 326.75 339.25 332.00 334.00
C 335.59 330.41 339.46 326.54 343.00 323.00
C 347.14 318.86 350.59 313.40 354.00 309.00
C 355.27 306.95 356.06 305.10 357.00 303.00
C 357.90 300.98 359.02 299.63 360.00 298.00
C 361.35 295.20 362.15 292.89 363.00 290.00
C 364.47 285.01 366.55 279.65 368.00 275.00
C 368.83 270.60 369.82 266.66 370.00 262.00
C 370.30 254.08 370.30 245.92 370.00 238.00
C 369.77 231.93 368.56 226.66 367.00 221.00
C 365.72 217.62 363.64 213.91 363.00 210.00
C 363.00 210.00 363.11 209.47 363.00 209.00
C 361.10 206.63 360.02 203.93 359.00 201.00
C 357.72 197.31 356.15 194.47 354.00 191.00
C 351.38 187.62 348.76 183.29 346.00 180.00
C 342.02 175.25 336.37 170.37 332.00 166.00
C 326.40 160.40 314.88 157.21 311.00 151.00
C 311.00 151.00 310.47 151.11 310.00 151.00
C 304.56 149.72 298.79 146.24 294.00 144.00
C 291.13 143.02 289.02 142.48 286.00 142.00
C 280.72 141.16 274.83 140.06 270.00 139.00
C 269.00 139.03 268.00 139.00 267.00 139.00
C 261.67 139.00 256.33 139.00 251.00 139.00
C 250.00 139.00 249.00 139.03 248.00 139.00
C 241.79 140.11 234.63 141.88 228.00 143.00
M 229.00 177.00 
C 233.64 178.71 236.26 182.68 235.00 188.00
C 234.00 187.89 232.27 188.47 232.00 187.00
C 229.65 183.77 233.45 182.30 229.00 180.00
C 227.20 179.39 222.89 179.69 221.00 180.00
C 213.12 181.28 205.62 187.01 198.00 190.00
C 197.57 190.17 197.00 190.00 197.00 190.00
C 192.65 194.54 186.23 198.21 181.00 202.00
C 177.25 205.47 174.23 210.04 170.00 213.00
C 169.79 213.39 170.00 214.00 170.00 214.00
C 169.15 216.17 166.43 219.13 166.00 221.00
C 164.20 234.57 186.44 238.94 196.00 242.00
C 203.05 244.26 213.27 255.80 219.00 253.00
C 220.77 252.14 222.31 251.23 224.00 250.00
C 225.82 248.32 230.19 243.99 232.08 243.08 C 233.97 242.18 240.57 236.36 241.00 239.00
C 241.16 239.97 239.47 241.46 239.00 242.00
C 233.31 248.53 223.77 252.89 217.00 258.00
C 215.64 261.73 216.99 267.06 216.00 271.00
C 215.56 272.75 215.27 273.77 214.00 275.00
C 213.97 275.50 214.00 276.00 214.00 276.00
C 213.05 286.12 200.68 291.98 195.25 299.25 C 189.82 306.52 167.74 312.07 170.33 300.33 C 172.92 288.59 182.64 285.60 189.25 277.25 C 195.86 268.90 205.33 264.71 213.00 258.00
C 213.19 257.59 213.00 257.00 213.00 257.00
C 210.66 255.36 208.60 253.29 207.00 251.00
C 206.57 250.83 206.00 251.00 206.00 251.00
C 203.32 249.95 199.52 248.44 198.00 246.00
C 197.57 245.83 197.00 246.00 197.00 246.00
C 192.78 245.01 187.27 242.62 184.00 240.00
C 183.53 239.89 183.00 240.00 183.00 240.00
C 179.24 239.12 174.92 237.34 172.00 235.00
C 171.53 234.89 171.00 235.00 171.00 235.00
C 167.99 233.91 164.62 231.18 164.00 228.00
C 163.91 227.52 164.00 227.00 164.00 227.00
C 160.65 222.48 165.00 214.60 168.00 211.00
C 168.13 210.65 168.68 210.20 169.00 210.00
C 169.08 210.06 169.96 208.06 170.00 208.00
C 171.94 204.82 175.28 202.33 178.00 200.00
C 188.88 190.70 200.83 183.86 214.00 179.00
C 216.38 178.12 217.97 177.07 221.00 177.00
C 221.50 176.99 222.00 177.00 222.00 177.00
C 224.34 175.27 226.74 176.17 229.00 177.00
M 343.00 182.00 
C 344.55 186.19 343.73 190.93 343.00 195.00
C 342.75 198.73 342.23 202.13 342.00 206.00
C 341.74 210.38 341.07 213.87 340.00 218.00
C 337.05 229.38 335.53 241.24 334.00 253.00
C 333.58 256.19 332.70 259.31 332.00 262.00
C 330.71 271.66 328.00 280.93 328.00 291.00
C 328.81 294.57 328.76 292.61 332.00 294.00
C 331.99 297.10 325.38 303.01 325.00 297.00
C 324.34 294.83 324.95 291.28 325.00 289.00
C 325.05 286.36 325.58 283.99 326.00 282.00
C 329.36 253.45 340.00 225.25 340.00 196.00
C 340.00 191.33 340.00 186.67 340.00 182.00
C 340.00 181.50 340.00 181.00 340.00 181.00
C 336.64 180.58 334.77 183.75 333.00 186.00
C 331.30 188.15 329.86 190.22 328.00 192.00
C 327.84 192.44 328.00 193.00 328.00 193.00
C 325.36 199.73 321.38 208.53 317.00 214.00
C 316.89 214.47 317.00 215.00 317.00 215.00
C 315.85 219.91 313.11 224.74 311.00 229.00
C 305.19 240.74 303.47 253.89 299.00 266.00
C 298.30 268.06 298.62 271.02 295.00 270.00
C 295.47 268.12 293.94 265.07 296.00 264.00
C 297.82 254.49 300.00 245.01 300.00 235.00
C 300.00 231.68 299.87 228.66 301.00 226.00
C 301.00 225.50 301.00 224.50 301.00 224.00
C 301.00 217.78 301.65 211.18 301.00 205.00
C 300.86 203.63 301.01 202.10 300.00 201.00
C 296.82 198.86 291.52 208.55 290.00 210.00
C 289.91 210.48 290.00 211.00 290.00 211.00
C 287.16 218.24 282.78 225.51 279.00 232.00
C 276.38 238.07 273.97 243.76 272.00 250.00
C 271.48 251.66 270.73 252.66 270.00 254.00
C 268.36 258.11 267.14 261.74 266.00 266.00
C 264.51 271.59 262.33 277.01 260.00 282.00
C 256.99 290.79 255.37 300.42 252.00 309.00
C 251.52 310.21 251.25 311.67 251.00 313.00
C 247.98 314.27 245.31 309.61 248.00 308.00
C 248.28 297.51 252.47 286.48 254.00 276.00
C 255.01 269.09 255.78 259.89 259.00 254.00
C 259.01 253.50 259.00 253.00 259.00 253.00
C 259.07 250.02 259.73 247.31 261.00 245.00
C 261.01 244.50 261.00 244.00 261.00 244.00
C 261.15 237.77 263.18 228.16 266.00 223.00
C 266.01 222.50 266.00 222.00 266.00 222.00
C 266.07 219.02 266.73 216.31 268.00 214.00
C 268.01 213.50 268.00 213.00 268.00 213.00
C 268.12 208.02 269.78 201.06 272.00 197.00
C 272.01 196.50 272.00 196.00 272.00 196.00
C 272.00 192.02 272.68 187.56 271.00 184.00
C 261.57 186.41 256.22 196.64 250.00 203.00
C 249.84 203.44 250.00 204.00 250.00 204.00
C 248.28 208.37 245.69 215.68 243.00 219.00
C 242.98 219.50 243.00 220.00 243.00 220.00
C 243.00 229.55 244.20 231.54 251.00 237.00
C 251.47 237.11 252.00 237.00 252.00 237.00
C 253.44 236.84 260.24 236.73 258.00 239.00
C 257.78 240.29 255.92 239.92 255.00 240.00
C 249.68 240.44 243.50 238.10 241.00 233.00
C 240.80 232.60 241.00 232.00 241.00 232.00
C 238.14 229.81 238.12 222.54 240.00 220.00
C 240.00 219.50 240.00 219.00 240.00 219.00
C 240.25 212.34 245.85 202.97 249.77 197.77 C 253.69 192.57 259.70 184.19 266.00 182.00
C 267.06 181.63 269.84 180.92 271.00 181.00
C 278.09 181.50 275.89 191.19 275.00 195.00
C 268.28 223.89 262.60 252.63 256.00 281.00
C 256.43 284.00 257.45 281.40 258.00 280.00
C 258.01 279.50 258.00 279.00 258.00 279.00
C 258.66 274.97 260.42 269.00 263.00 266.00
C 263.08 265.51 263.00 265.00 263.00 265.00
C 263.43 262.40 264.37 259.90 266.00 258.00
C 266.08 257.51 266.00 257.00 266.00 257.00
C 266.62 253.21 268.60 247.80 271.00 245.00
C 271.08 244.51 271.00 244.00 271.00 244.00
C 272.03 239.61 274.25 234.43 277.00 231.00
C 277.11 230.53 277.00 230.00 277.00 230.00
C 278.75 222.55 284.54 211.23 290.00 206.00
C 290.16 205.56 290.00 205.00 290.00 205.00
C 292.58 197.86 303.66 193.26 304.00 204.00
C 304.02 204.50 304.00 205.50 304.00 206.00
C 306.06 210.84 304.50 217.29 304.00 222.00
C 304.00 223.67 304.00 225.33 304.00 227.00
C 304.00 231.57 303.74 235.64 303.00 240.00
C 304.26 239.92 303.56 237.94 305.00 238.00
C 305.08 237.51 305.00 237.00 305.00 237.00
C 306.67 226.77 312.90 216.50 317.00 207.00
C 318.31 203.97 318.96 199.89 322.00 198.00
C 322.17 197.57 322.00 197.00 322.00 197.00
C 324.30 191.15 337.90 168.18 343.00 182.00
M 250.00 329.00 
C 253.30 329.10 254.36 329.51 255.00 334.00
C 255.15 332.22 257.65 331.72 259.00 332.00
C 259.21 332.04 260.84 333.29 261.00 333.00
C 265.63 333.10 263.58 337.55 263.00 342.00
C 259.73 340.09 264.80 335.76 262.00 334.00
C 262.12 334.99 261.91 336.01 262.00 337.00
C 260.12 336.75 260.54 334.45 259.00 334.00
C 259.00 334.50 258.87 335.54 259.00 336.00
C 259.55 337.93 255.83 339.80 257.00 343.00
C 258.61 339.36 258.72 340.87 260.00 344.00
C 258.43 343.61 255.78 344.94 255.00 343.00
C 254.76 342.82 255.00 342.00 255.00 342.00
C 254.84 341.77 253.26 341.75 253.00 342.00
C 251.24 343.66 249.90 344.69 247.00 344.00
C 246.49 339.04 248.11 333.53 246.00 329.00
C 247.28 327.70 248.65 328.22 250.00 329.00
M 266.00 333.00 
C 266.00 335.00 265.98 337.00 266.00 339.00
C 266.02 341.15 266.80 343.68 263.00 344.00
C 264.13 342.47 263.91 340.55 265.00 339.00
C 264.61 336.88 264.57 333.37 266.00 332.00
C 269.20 332.18 267.60 335.69 268.00 338.00
C 265.80 337.26 268.31 333.67 266.00 333.00 Z"/>
</g>
<g fill="None" fill-opacity="0.0" stroke="#AFAEAC" stroke-opacity="0.32" stroke-width="0.3"><path d="
M 286.00 142.00 
C 280.91 140.60 275.99 138.84 270.00 139.00
C 274.83 140.06 280.72 141.16 286.00 142.00 Z"/>
</g>
<g fill="None" fill-opacity="0.0" stroke="#CACBC9" stroke-opacity="0.21" stroke-width="0.3"><path d="
M 220.00 146.00 
C 221.75 145.54 222.61 144.66 224.00 144.00
C 222.55 144.50 221.18 145.55 220.00 146.00 Z"/>
</g>
<g fill="None" fill-opacity="0.0" stroke="#BBBBBB" stroke-opacity="0.27" stroke-width="0.3"><path d="
M 310.00 151.00 
C 305.42 147.33 299.52 145.89 294.00 144.00
C 298.79 146.24 304.56 149.72 310.00 151.00 Z"/>
</g>
<g fill="None" fill-opacity="0.0" stroke="#C8C9C5" stroke-opacity="0.22" stroke-width="0.3"><path d="
M 194.00 160.00 
C 201.16 155.54 208.52 150.52 216.00 147.00
C 209.31 149.26 198.03 153.82 194.00 160.00 Z"/>
</g>
<g fill="None" fill-opacity="0.0" stroke="#C4C3C2" stroke-opacity="0.23" stroke-width="0.3"><path d="
M 332.00 166.00 
C 331.77 165.84 332.00 165.00 332.00 165.00
C 325.78 159.69 318.61 153.99 311.00 151.00
C 314.88 157.21 326.40 160.40 332.00 166.00 Z"/>
</g>
<g fill="None" fill-opacity="0.0" stroke="#BCBDBA" stroke-opacity="0.27" stroke-width="0.3"><path d="
M 165.00 190.00 
C 169.02 184.81 173.96 179.56 178.25 174.25 C 182.53 168.93 189.48 165.40 193.00 160.00
C 181.53 167.13 171.99 178.71 165.00 190.00 Z"/>
</g>
<g fill="None" fill-opacity="0.0" stroke="#EEEFED" stroke-opacity="0.07" stroke-width="0.3"><path d="
M 332.00 166.00 
C 336.47 169.12 341.34 174.08 345.00 178.00
C 342.04 173.14 336.32 168.69 332.00 165.00
C 332.00 165.00 331.77 165.84 332.00 166.00 Z"/>
</g>
<g fill="None" fill-opacity="0.0" stroke="#5C5D5A" stroke-opacity="0.70" stroke-width="0.3"><path d="
M 346.00 180.00 
C 345.64 179.55 345.33 178.55 345.00 178.00
C 341.34 174.08 336.47 169.12 332.00 166.00
C 336.37 170.37 342.02 175.25 346.00 180.00 Z"/>
</g>
<g fill="None" fill-opacity="0.0" stroke="#82827F" stroke-opacity="0.50" stroke-width="0.3"><path d="
M 222.00 177.00 
C 224.06 177.00 227.03 176.44 229.00 177.00
C 226.74 176.17 224.34 175.27 222.00 177.00 Z"/>
</g>
<g fill="None" fill-opacity="0.0" stroke="#AFAFAD" stroke-opacity="0.31" stroke-width="0.3"><path d="
M 214.00 179.00 
C 216.41 178.18 218.90 178.15 221.00 177.00
C 217.97 177.07 216.38 178.12 214.00 179.00 Z"/>
</g>
<g fill="None" fill-opacity="0.0" stroke="#000000" stroke-opacity="0.00" stroke-width="0.3"><path d="
M 214.00 179.00 
C 205.59 181.88 197.34 188.16 189.30 192.30 C 181.27 196.45 176.62 205.29 169.00 210.00
C 168.68 210.20 168.13 210.65 168.00 211.00
C 165.85 216.69 164.00 220.50 164.00 227.00
C 164.00 227.00 163.91 227.52 164.00 228.00
C 165.76 230.75 168.82 232.72 171.00 235.00
C 171.00 235.00 171.53 234.89 172.00 235.00
C 175.76 235.88 180.08 237.66 183.00 240.00
C 183.00 240.00 183.53 239.89 184.00 240.00
C 188.39 241.03 193.57 243.25 197.00 246.00
C 197.00 246.00 197.57 245.83 198.00 246.00
C 200.68 247.05 204.47 248.56 206.00 251.00
C 206.00 251.00 206.57 250.83 207.00 251.00
C 209.43 251.94 212.06 254.58 213.00 257.00
C 213.00 257.00 213.19 257.59 213.00 258.00
C 208.91 267.03 196.46 268.11 190.92 276.92 C 185.38 285.72 174.91 287.12 172.08 299.08 C 169.25 311.03 187.07 305.15 194.75 298.75 C 202.43 292.34 207.99 283.49 214.00 276.00
C 214.00 276.00 213.97 275.50 214.00 275.00
C 214.12 273.13 215.52 272.31 216.00 271.00
C 216.99 267.06 215.64 261.73 217.00 258.00
C 218.38 254.23 225.28 253.06 227.75 249.75 C 230.21 246.43 236.04 244.70 239.00 242.00
C 239.47 241.46 241.16 239.97 241.00 239.00
C 235.68 240.95 229.54 245.96 224.00 250.00
C 222.31 251.23 220.77 252.14 219.00 253.00
C 218.21 253.55 217.54 255.25 217.00 256.00
C 210.24 251.33 203.29 245.68 196.00 242.00
C 186.44 238.94 164.20 234.57 166.00 221.00
C 166.34 218.46 167.80 215.37 170.00 214.00
C 170.00 214.00 169.79 213.39 170.00 213.00
C 170.72 211.62 172.06 210.15 173.00 209.00
C 175.41 206.06 178.06 203.32 181.00 201.00
C 185.77 197.24 191.30 192.06 197.00 190.00
C 197.00 190.00 197.57 190.17 198.00 190.00
C 201.73 184.03 214.62 181.14 221.00 180.00
C 223.85 179.49 226.06 178.48 229.00 180.00
C 233.45 182.30 229.65 183.77 232.00 187.00
C 237.02 185.69 232.35 177.95 229.00 177.00
C 227.03 176.44 224.06 177.00 222.00 177.00
C 222.00 177.00 221.50 176.99 221.00 177.00
C 218.90 178.15 216.41 178.18 214.00 179.00
M 204.00 287.00 
C 201.64 289.99 198.89 292.63 196.00 295.00
C 194.77 296.01 193.38 297.28 192.00 298.00
C 191.61 298.21 191.00 298.00 191.00 298.00
C 186.48 302.72 179.91 305.74 173.00 305.00
C 173.28 303.72 172.24 301.50 174.00 301.00
C 174.34 299.94 174.50 299.06 175.00 298.00
C 182.44 282.05 202.01 270.45 215.00 261.00
C 215.09 270.92 210.11 279.53 204.00 287.00 Z"/>
</g>
<g fill="None" fill-opacity="0.0" stroke="#D8D9D8" stroke-opacity="0.15" stroke-width="0.3"><path d="
M 232.00 187.00 
C 232.27 188.47 234.00 187.89 235.00 188.00
C 236.26 182.68 233.64 178.71 229.00 177.00
C 232.35 177.95 237.02 185.69 232.00 187.00 Z"/>
</g>
<g fill="None" fill-opacity="0.0" stroke="#C5C5C3" stroke-opacity="0.22" stroke-width="0.3"><path d="
M 322.00 197.00 
C 325.84 194.60 327.85 187.39 330.92 183.92 C 333.99 180.44 340.67 174.32 343.00 182.00
C 337.90 168.18 324.30 191.15 322.00 197.00 Z"/>
</g>
<g fill="None" fill-opacity="0.0" stroke="#000000" stroke-opacity="0.00" stroke-width="0.3"><path d="
M 322.00 197.00 
C 322.00 197.00 322.17 197.57 322.00 198.00
C 320.81 201.03 319.27 204.06 318.00 207.00
C 314.19 215.84 311.02 229.97 305.00 237.00
C 305.00 237.00 305.08 237.51 305.00 238.00
C 304.68 239.98 304.00 242.21 303.00 244.00
C 302.52 244.86 302.79 247.04 301.00 247.00
C 301.39 245.43 300.06 242.78 302.00 242.00
C 302.54 237.07 303.53 231.39 304.00 227.00
C 304.00 225.33 304.00 223.67 304.00 222.00
C 304.00 216.67 304.00 211.33 304.00 206.00
C 304.00 205.50 304.02 204.50 304.00 204.00
C 300.39 193.55 295.54 201.13 290.00 205.00
C 290.00 205.00 290.16 205.56 290.00 206.00
C 287.36 213.31 281.73 224.10 277.00 230.00
C 277.00 230.00 277.11 230.53 277.00 231.00
C 276.01 235.22 273.62 240.73 271.00 244.00
C 271.00 244.00 271.08 244.51 271.00 245.00
C 270.38 248.79 268.40 254.20 266.00 257.00
C 266.00 257.00 266.08 257.51 266.00 258.00
C 265.57 260.60 264.63 263.10 263.00 265.00
C 263.00 265.00 263.08 265.51 263.00 266.00
C 262.34 270.03 260.58 276.00 258.00 279.00
C 258.00 279.00 258.01 279.50 258.00 280.00
C 257.92 283.96 254.83 286.93 255.00 291.00
C 252.89 288.48 254.92 283.47 256.00 281.00
C 262.60 252.63 268.28 223.89 275.00 195.00
C 275.42 191.26 276.18 181.78 271.00 181.00
C 269.84 180.92 267.06 181.63 266.00 182.00
C 250.98 188.79 248.62 208.38 240.00 219.00
C 240.00 219.00 240.00 219.50 240.00 220.00
C 240.00 224.11 239.66 228.22 241.00 232.00
C 241.00 232.00 240.80 232.60 241.00 233.00
C 245.53 236.17 249.59 239.76 255.00 240.00
C 255.92 239.92 257.78 240.29 258.00 239.00
C 258.11 238.37 252.56 237.26 252.00 237.00
C 252.00 237.00 251.47 237.11 251.00 237.00
C 244.36 235.44 238.13 226.56 243.00 220.00
C 243.00 220.00 242.98 219.50 243.00 219.00
C 243.16 214.73 246.27 206.33 250.00 204.00
C 250.00 204.00 249.84 203.44 250.00 203.00
C 252.84 195.13 257.02 194.53 262.25 187.25 C 267.48 179.97 278.73 186.91 272.00 196.00
C 272.00 196.00 272.01 196.50 272.00 197.00
C 271.88 201.98 270.22 208.94 268.00 213.00
C 268.00 213.00 268.01 213.50 268.00 214.00
C 267.93 216.98 267.27 219.69 266.00 222.00
C 266.00 222.00 266.01 222.50 266.00 223.00
C 265.85 229.23 263.82 238.83 261.00 244.00
C 261.00 244.00 261.01 244.50 261.00 245.00
C 260.93 247.98 260.26 250.69 259.00 253.00
C 259.00 253.00 259.01 253.50 259.00 254.00
C 258.83 261.48 255.72 269.26 254.00 276.00
C 252.47 286.48 248.28 297.51 248.00 308.00
C 247.96 309.33 248.03 310.67 248.00 312.00
C 249.27 310.38 249.71 306.03 250.00 311.00
C 251.26 310.92 250.56 308.94 252.00 309.00
C 255.37 300.42 256.99 290.79 260.00 282.00
C 261.99 276.19 263.88 270.97 266.00 266.00
C 267.14 261.74 268.36 258.11 270.00 254.00
C 270.54 252.65 271.50 251.12 272.00 250.00
C 273.97 243.76 276.38 238.07 279.00 232.00
C 281.41 226.41 284.67 214.33 290.00 211.00
C 290.00 211.00 289.91 210.48 290.00 210.00
C 290.54 207.22 296.98 197.70 300.00 201.00
C 301.01 202.10 300.86 203.63 301.00 205.00
C 302.23 210.17 303.15 218.94 301.00 224.00
C 301.00 224.50 301.00 225.50 301.00 226.00
C 301.00 229.10 300.23 232.64 300.00 235.00
C 300.00 245.01 297.82 254.49 296.00 264.00
C 296.01 265.67 296.00 267.33 296.00 269.00
C 298.89 269.69 296.11 266.18 299.00 266.00
C 303.47 253.89 305.19 240.74 311.00 229.00
C 312.16 225.51 313.61 218.46 317.00 215.00
C 317.00 215.00 316.89 214.47 317.00 214.00
C 318.22 208.82 323.45 195.84 328.00 193.00
C 328.00 193.00 327.84 192.44 328.00 192.00
C 328.64 190.21 329.89 188.50 331.00 187.00
C 332.72 184.68 337.23 178.16 340.00 181.00
C 340.00 181.00 340.00 181.50 340.00 182.00
C 342.66 185.59 340.35 192.42 340.00 196.00
C 340.00 225.25 329.36 253.45 326.00 282.00
C 325.75 284.16 325.15 287.47 325.00 289.00
C 324.95 291.28 324.34 294.83 325.00 297.00
C 326.68 300.82 330.85 296.90 331.00 294.00
C 328.38 296.09 325.14 293.42 328.00 291.00
C 328.00 280.93 330.71 271.66 332.00 262.00
C 332.46 258.55 333.27 255.85 334.00 253.00
C 335.53 241.24 337.05 229.38 340.00 218.00
C 340.35 215.14 341.51 209.34 342.00 206.00
C 342.23 202.13 342.75 198.73 343.00 195.00
C 343.24 191.45 344.03 185.38 343.00 182.00
C 340.67 174.32 333.99 180.44 330.92 183.92 C 327.85 187.39 325.84 194.60 322.00 197.00 Z"/>
</g>
<g fill="None" fill-opacity="0.0" stroke="#DDDDDB" stroke-opacity="0.14" stroke-width="0.3"><path d="
M 178.00 200.00 
C 175.46 202.54 172.39 205.44 170.00 208.00
C 169.96 208.06 169.08 210.06 169.00 210.00
C 176.62 205.29 181.27 196.45 189.30 192.30 C 197.34 188.16 205.59 181.88 214.00 179.00
C 200.83 183.86 188.88 190.70 178.00 200.00 Z"/>
</g>
<g fill="None" fill-opacity="0.0" stroke="#E6E6E6" stroke-opacity="0.10" stroke-width="0.3"><path d="
M 221.00 180.00 
C 222.89 179.69 227.20 179.39 229.00 180.00
C 226.06 178.48 223.85 179.49 221.00 180.00 Z"/>
</g>
<g fill="None" fill-opacity="0.0" stroke="#C0C0BC" stroke-opacity="0.25" stroke-width="0.3"><path d="
M 198.00 190.00 
C 205.62 187.01 213.12 181.28 221.00 180.00
C 214.62 181.14 201.73 184.03 198.00 190.00 Z"/>
</g>
<g fill="None" fill-opacity="0.0" stroke="#DEDDDB" stroke-opacity="0.14" stroke-width="0.3"><path d="
M 331.00 187.00 
C 331.49 186.55 332.57 186.40 333.00 186.00
C 334.77 183.75 336.64 180.58 340.00 181.00
C 337.23 178.16 332.72 184.68 331.00 187.00 Z"/>
</g>
<g fill="None" fill-opacity="0.0" stroke="#C5C5C3" stroke-opacity="0.24" stroke-width="0.3"><path d="
M 354.00 191.00 
C 351.54 187.03 348.85 183.56 346.00 180.00
C 348.76 183.29 351.38 187.62 354.00 191.00 Z"/>
</g>
<g fill="None" fill-opacity="0.0" stroke="#CCCCCA" stroke-opacity="0.21" stroke-width="0.3"><path d="
M 275.00 195.00 
C 275.89 191.19 278.09 181.50 271.00 181.00
C 276.18 181.78 275.42 191.26 275.00 195.00 Z"/>
</g>
<g fill="None" fill-opacity="0.0" stroke="#D4D5D4" stroke-opacity="0.17" stroke-width="0.3"><path d="
M 240.00 219.00 
C 248.62 208.38 250.98 188.79 266.00 182.00
C 259.70 184.19 253.69 192.57 249.77 197.77 C 245.85 202.97 240.25 212.34 240.00 219.00 Z"/>
</g>
<g fill="None" fill-opacity="0.0" stroke="#BCBCBA" stroke-opacity="0.27" stroke-width="0.3"><path d="
M 340.00 196.00 
C 340.35 192.42 342.66 185.59 340.00 182.00
C 340.00 186.67 340.00 191.33 340.00 196.00 Z"/>
</g>
<g fill="None" fill-opacity="0.0" stroke="#A5A6A3" stroke-opacity="0.36" stroke-width="0.3"><path d="
M 343.00 195.00 
C 343.73 190.93 344.55 186.19 343.00 182.00
C 344.03 185.38 343.24 191.45 343.00 195.00 Z"/>
</g>
<g fill="None" fill-opacity="0.0" stroke="#B6B6B3" stroke-opacity="0.30" stroke-width="0.3"><path d="
M 250.00 203.00 
C 256.22 196.64 261.57 186.41 271.00 184.00
C 272.68 187.56 272.00 192.02 272.00 196.00
C 278.73 186.91 267.48 179.97 262.25 187.25 C 257.02 194.53 252.84 195.13 250.00 203.00 Z"/>
</g>
<g fill="None" fill-opacity="0.0" stroke="#B4B4B1" stroke-opacity="0.29" stroke-width="0.3"><path d="
M 331.00 187.00 
C 329.89 188.50 328.64 190.21 328.00 192.00
C 329.86 190.22 331.30 188.15 333.00 186.00
C 332.57 186.40 331.49 186.55 331.00 187.00 Z"/>
</g>
<g fill="None" fill-opacity="0.0" stroke="#C6C6C2" stroke-opacity="0.25" stroke-width="0.3"><path d="
M 181.00 201.00 
C 180.75 201.27 181.00 202.00 181.00 202.00
C 186.23 198.21 192.65 194.54 197.00 190.00
C 191.30 192.06 185.77 197.24 181.00 201.00 Z"/>
</g>
<g fill="None" fill-opacity="0.0" stroke="#B6B7B6" stroke-opacity="0.29" stroke-width="0.3"><path d="
M 317.00 214.00 
C 321.38 208.53 325.36 199.73 328.00 193.00
C 323.45 195.84 318.22 208.82 317.00 214.00 Z"/>
</g>
<g fill="None" fill-opacity="0.0" stroke="#C9CAC8" stroke-opacity="0.21" stroke-width="0.3"><path d="
M 158.00 203.00 
C 159.61 200.99 160.82 198.50 162.00 196.00
C 160.57 198.40 158.73 199.90 158.00 203.00 Z"/>
</g>
<g fill="None" fill-opacity="0.0" stroke="#B9B9B8" stroke-opacity="0.28" stroke-width="0.3"><path d="
M 268.00 213.00 
C 270.22 208.94 271.88 201.98 272.00 197.00
C 269.78 201.06 268.12 208.02 268.00 213.00 Z"/>
</g>
<g fill="None" fill-opacity="0.0" stroke="#AEAFAD" stroke-opacity="0.32" stroke-width="0.3"><path d="
M 290.00 205.00 
C 295.54 201.13 300.39 193.55 304.00 204.00
C 303.66 193.26 292.58 197.86 290.00 205.00 Z"/>
</g>
<g fill="None" fill-opacity="0.0" stroke="#A3A4A3" stroke-opacity="0.36" stroke-width="0.3"><path d="
M 317.00 207.00 
C 317.12 206.78 318.00 207.00 318.00 207.00
C 319.27 204.06 320.81 201.03 322.00 198.00
C 318.96 199.89 318.31 203.97 317.00 207.00 Z"/>
</g>
<g fill="None" fill-opacity="0.0" stroke="#7B7B77" stroke-opacity="0.55" stroke-width="0.3"><path d="
M 170.00 208.00 
C 172.39 205.44 175.46 202.54 178.00 200.00
C 175.28 202.33 171.94 204.82 170.00 208.00 Z"/>
</g>
<g fill="None" fill-opacity="0.0" stroke="#E5E8E5" stroke-opacity="0.10" stroke-width="0.3"><path d="
M 290.00 210.00 
C 291.52 208.55 296.82 198.86 300.00 201.00
C 296.98 197.70 290.54 207.22 290.00 210.00 Z"/>
</g>
<g fill="None" fill-opacity="0.0" stroke="#FEFEFE" stroke-opacity="0.02" stroke-width="0.3"><path d="
M 173.00 209.00 
C 175.28 206.63 178.34 203.86 181.00 202.00
C 181.00 202.00 180.75 201.27 181.00 201.00
C 178.06 203.32 175.41 206.06 173.00 209.00 Z"/>
</g>
<g fill="None" fill-opacity="0.0" stroke="#ADADA7" stroke-opacity="0.34" stroke-width="0.3"><path d="
M 363.00 209.00 
C 362.26 205.86 360.27 203.65 359.00 201.00
C 360.02 203.93 361.10 206.63 363.00 209.00 Z"/>
</g>
<g fill="None" fill-opacity="0.0" stroke="#898A88" stroke-opacity="0.49" stroke-width="0.3"><path d="
M 173.00 209.00 
C 172.06 210.15 170.72 211.62 170.00 213.00
C 174.23 210.04 177.25 205.47 181.00 202.00
C 178.34 203.86 175.28 206.63 173.00 209.00 Z"/>
</g>
<g fill="None" fill-opacity="0.0" stroke="#A6A6A3" stroke-opacity="0.37" stroke-width="0.3"><path d="
M 155.00 210.00 
C 155.99 208.03 157.43 206.43 158.00 204.00
C 156.51 205.86 155.85 207.70 155.00 210.00 Z"/>
</g>
<g fill="None" fill-opacity="0.0" stroke="#B7B7B6" stroke-opacity="0.28" stroke-width="0.3"><path d="
M 243.00 219.00 
C 245.69 215.68 248.28 208.37 250.00 204.00
C 246.27 206.33 243.16 214.73 243.00 219.00 Z"/>
</g>
<g fill="None" fill-opacity="0.0" stroke="#BFC1BE" stroke-opacity="0.24" stroke-width="0.3"><path d="
M 301.00 224.00 
C 303.15 218.94 302.23 210.17 301.00 205.00
C 301.65 211.18 301.00 217.78 301.00 224.00 Z"/>
</g>
<g fill="None" fill-opacity="0.0" stroke="#D7D7D5" stroke-opacity="0.17" stroke-width="0.3"><path d="
M 277.00 230.00 
C 281.73 224.10 287.36 213.31 290.00 206.00
C 284.54 211.23 278.75 222.55 277.00 230.00 Z"/>
</g>
<g fill="None" fill-opacity="0.0" stroke="#A8A8A8" stroke-opacity="0.34" stroke-width="0.3"><path d="
M 304.00 222.00 
C 304.50 217.29 306.06 210.84 304.00 206.00
C 304.00 211.33 304.00 216.67 304.00 222.00 Z"/>
</g>
<g fill="None" fill-opacity="0.0" stroke="#CDCFCC" stroke-opacity="0.20" stroke-width="0.3"><path d="
M 340.00 218.00 
C 341.07 213.87 341.74 210.38 342.00 206.00
C 341.51 209.34 340.35 215.14 340.00 218.00 Z"/>
</g>
<g fill="None" fill-opacity="0.0" stroke="#C8C8C7" stroke-opacity="0.21" stroke-width="0.3"><path d="
M 305.00 237.00 
C 311.02 229.97 314.19 215.84 318.00 207.00
C 318.00 207.00 317.12 206.78 317.00 207.00
C 312.90 216.50 306.67 226.77 305.00 237.00 Z"/>
</g>
<g fill="None" fill-opacity="0.0" stroke="#C2C1C0" stroke-opacity="0.24" stroke-width="0.3"><path d="
M 367.00 221.00 
C 365.94 217.14 365.62 213.05 363.00 210.00
C 363.64 213.91 365.72 217.62 367.00 221.00 Z"/>
</g>
<g fill="None" fill-opacity="0.0" stroke="#D3D3D3" stroke-opacity="0.18" stroke-width="0.3"><path d="
M 164.00 227.00 
C 164.00 220.50 165.85 216.69 168.00 211.00
C 165.00 214.60 160.65 222.48 164.00 227.00 Z"/>
</g>
<g fill="None" fill-opacity="0.0" stroke="#BCBDBB" stroke-opacity="0.26" stroke-width="0.3"><path d="
M 279.00 232.00 
C 282.78 225.51 287.16 218.24 290.00 211.00
C 284.67 214.33 281.41 226.41 279.00 232.00 Z"/>
</g>
<g fill="None" fill-opacity="0.0" stroke="#C3C3C0" stroke-opacity="0.25" stroke-width="0.3"><path d="
M 166.00 221.00 
C 166.43 219.13 169.15 216.17 170.00 214.00
C 167.80 215.37 166.34 218.46 166.00 221.00 Z"/>
</g>
<g fill="None" fill-opacity="0.0" stroke="#BABBBA" stroke-opacity="0.27" stroke-width="0.3"><path d="
M 266.00 222.00 
C 267.27 219.69 267.93 216.98 268.00 214.00
C 266.73 216.31 266.07 219.02 266.00 222.00 Z"/>
</g>
<g fill="None" fill-opacity="0.0" stroke="#C6C7C5" stroke-opacity="0.22" stroke-width="0.3"><path d="
M 311.00 229.00 
C 313.11 224.74 315.85 219.91 317.00 215.00
C 313.61 218.46 312.16 225.51 311.00 229.00 Z"/>
</g>
<g fill="None" fill-opacity="0.0" stroke="#AEAFAB" stroke-opacity="0.34" stroke-width="0.3"><path d="
M 150.00 227.00 
C 150.69 224.77 151.53 222.71 152.00 220.00
C 151.42 222.04 150.47 224.54 150.00 227.00 Z"/>
</g>
<g fill="None" fill-opacity="0.0" stroke="#BDBFBE" stroke-opacity="0.26" stroke-width="0.3"><path d="
M 241.00 232.00 
C 239.66 228.22 240.00 224.11 240.00 220.00
C 238.12 222.54 238.14 229.81 241.00 232.00 Z"/>
</g>
<g fill="None" fill-opacity="0.0" stroke="#B5B5B3" stroke-opacity="0.30" stroke-width="0.3"><path d="
M 251.00 237.00 
C 244.20 231.54 243.00 229.55 243.00 220.00
C 238.13 226.56 244.36 235.44 251.00 237.00 Z"/>
</g>
<g fill="None" fill-opacity="0.0" stroke="#C1C2BC" stroke-opacity="0.25" stroke-width="0.3"><path d="
M 261.00 244.00 
C 263.82 238.83 265.85 229.23 266.00 223.00
C 263.18 228.16 261.15 237.77 261.00 244.00 Z"/>
</g>
<g fill="None" fill-opacity="0.0" stroke="#AEAFAA" stroke-opacity="0.33" stroke-width="0.3"><path d="
M 300.00 235.00 
C 300.23 232.64 301.00 229.10 301.00 226.00
C 299.87 228.66 300.00 231.68 300.00 235.00 Z"/>
</g>
<g fill="None" fill-opacity="0.0" stroke="#A9A5A2" stroke-opacity="0.36" stroke-width="0.3"><path d="
M 302.00 242.00 
C 302.06 242.41 303.01 244.08 303.00 244.00
C 304.00 242.21 304.68 239.98 305.00 238.00
C 303.56 237.94 304.26 239.92 303.00 240.00
C 303.74 235.64 304.00 231.57 304.00 227.00
C 303.53 231.39 302.54 237.07 302.00 242.00 Z"/>
</g>
<g fill="None" fill-opacity="0.0" stroke="#CCCDCA" stroke-opacity="0.19" stroke-width="0.3"><path d="
M 171.00 235.00 
C 168.82 232.72 165.76 230.75 164.00 228.00
C 164.62 231.18 167.99 233.91 171.00 235.00 Z"/>
</g>
<g fill="None" fill-opacity="0.0" stroke="#D1D1CD" stroke-opacity="0.19" stroke-width="0.3"><path d="
M 271.00 244.00 
C 273.62 240.73 276.01 235.22 277.00 231.00
C 274.25 234.43 272.03 239.61 271.00 244.00 Z"/>
</g>
<g fill="None" fill-opacity="0.0" stroke="#D9D9D8" stroke-opacity="0.15" stroke-width="0.3"><path d="
M 255.00 240.00 
C 249.59 239.76 245.53 236.17 241.00 233.00
C 243.50 238.10 249.68 240.44 255.00 240.00 Z"/>
</g>
<g fill="None" fill-opacity="0.0" stroke="#D4D4D2" stroke-opacity="0.18" stroke-width="0.3"><path d="
M 183.00 240.00 
C 180.08 237.66 175.76 235.88 172.00 235.00
C 174.92 237.34 179.24 239.12 183.00 240.00 Z"/>
</g>
<g fill="None" fill-opacity="0.0" stroke="#D6D6D2" stroke-opacity="0.15" stroke-width="0.3"><path d="
M 258.00 239.00 
C 260.24 236.73 253.44 236.84 252.00 237.00
C 252.56 237.26 258.11 238.37 258.00 239.00 Z"/>
</g>
<g fill="None" fill-opacity="0.0" stroke="#CCCDCA" stroke-opacity="0.20" stroke-width="0.3"><path d="
M 224.00 250.00 
C 229.54 245.96 235.68 240.95 241.00 239.00
C 240.57 236.36 233.97 242.18 232.08 243.08 C 230.19 243.99 225.82 248.32 224.00 250.00 Z"/>
</g>
<g fill="None" fill-opacity="0.0" stroke="#E5E3E1" stroke-opacity="0.10" stroke-width="0.3"><path d="
M 370.00 262.00 
C 371.06 254.56 371.07 245.51 370.00 238.00
C 370.30 245.92 370.30 254.08 370.00 262.00 Z"/>
</g>
<g fill="None" fill-opacity="0.0" stroke="#C2C2C1" stroke-opacity="0.23" stroke-width="0.3"><path d="
M 197.00 246.00 
C 193.57 243.25 188.39 241.03 184.00 240.00
C 187.27 242.62 192.78 245.01 197.00 246.00 Z"/>
</g>
<g fill="None" fill-opacity="0.0" stroke="#B6B6B3" stroke-opacity="0.28" stroke-width="0.3"><path d="
M 219.00 253.00 
C 213.27 255.80 203.05 244.26 196.00 242.00
C 203.29 245.68 210.24 251.33 217.00 256.00
C 217.54 255.25 218.21 253.55 219.00 253.00 Z"/>
</g>
<g fill="None" fill-opacity="0.0" stroke="#D1D2D0" stroke-opacity="0.20" stroke-width="0.3"><path d="
M 217.00 258.00 
C 223.77 252.89 233.31 248.53 239.00 242.00
C 236.04 244.70 230.21 246.43 227.75 249.75 C 225.28 253.06 218.38 254.23 217.00 258.00 Z"/>
</g>
<g fill="None" fill-opacity="0.0" stroke="#F1EFEA" stroke-opacity="0.09" stroke-width="0.3"><path d="
M 303.00 244.00 
C 303.01 244.08 302.06 242.41 302.00 242.00
C 300.06 242.78 301.39 245.43 301.00 247.00
C 302.79 247.04 302.52 244.86 303.00 244.00 Z"/>
</g>
<g fill="None" fill-opacity="0.0" stroke="#C3C3C0" stroke-opacity="0.25" stroke-width="0.3"><path d="
M 259.00 253.00 
C 260.26 250.69 260.93 247.98 261.00 245.00
C 259.73 247.31 259.07 250.02 259.00 253.00 Z"/>
</g>
<g fill="None" fill-opacity="0.0" stroke="#CECFCE" stroke-opacity="0.18" stroke-width="0.3"><path d="
M 266.00 257.00 
C 268.40 254.20 270.38 248.79 271.00 245.00
C 268.60 247.80 266.62 253.21 266.00 257.00 Z"/>
</g>
<g fill="None" fill-opacity="0.0" stroke="#B0B0AB" stroke-opacity="0.31" stroke-width="0.3"><path d="
M 206.00 251.00 
C 204.47 248.56 200.68 247.05 198.00 246.00
C 199.52 248.44 203.32 249.95 206.00 251.00 Z"/>
</g>
<g fill="None" fill-opacity="0.0" stroke="#BCBBBA" stroke-opacity="0.27" stroke-width="0.3"><path d="
M 270.00 254.00 
C 270.73 252.66 271.48 251.66 272.00 250.00
C 271.50 251.12 270.54 252.65 270.00 254.00 Z"/>
</g>
<g fill="None" fill-opacity="0.0" stroke="#CBCAC4" stroke-opacity="0.21" stroke-width="0.3"><path d="
M 213.00 257.00 
C 212.06 254.58 209.43 251.94 207.00 251.00
C 208.60 253.29 210.66 255.36 213.00 257.00 Z"/>
</g>
<g fill="None" fill-opacity="0.0" stroke="#D6D7D4" stroke-opacity="0.16" stroke-width="0.3"><path d="
M 332.00 262.00 
C 332.70 259.31 333.58 256.19 334.00 253.00
C 333.27 255.85 332.46 258.55 332.00 262.00 Z"/>
</g>
<g fill="None" fill-opacity="0.0" stroke="#C4C5C3" stroke-opacity="0.24" stroke-width="0.3"><path d="
M 254.00 276.00 
C 255.72 269.26 258.83 261.48 259.00 254.00
C 255.78 259.89 255.01 269.09 254.00 276.00 Z"/>
</g>
<g fill="None" fill-opacity="0.0" stroke="#C1C1BF" stroke-opacity="0.25" stroke-width="0.3"><path d="
M 214.00 276.00 
C 207.99 283.49 202.43 292.34 194.75 298.75 C 187.07 305.15 169.25 311.03 172.08 299.08 C 174.91 287.12 185.38 285.72 190.92 276.92 C 196.46 268.11 208.91 267.03 213.00 258.00
C 205.33 264.71 195.86 268.90 189.25 277.25 C 182.64 285.60 172.92 288.59 170.33 300.33 C 167.74 312.07 189.82 306.52 195.25 299.25 C 200.68 291.98 213.05 286.12 214.00 276.00 Z"/>
</g>
<g fill="None" fill-opacity="0.0" stroke="#D3D3D2" stroke-opacity="0.17" stroke-width="0.3"><path d="
M 263.00 265.00 
C 264.63 263.10 265.57 260.60 266.00 258.00
C 264.37 259.90 263.43 262.40 263.00 265.00 Z"/>
</g>
<g fill="None" fill-opacity="0.0" stroke="#CFCFCD" stroke-opacity="0.20" stroke-width="0.3"><path d="
M 175.00 298.00 
C 176.20 296.11 178.50 293.90 180.00 292.00
C 184.57 286.21 190.45 280.74 196.00 276.00
C 201.72 271.12 207.62 265.46 214.00 262.00
C 213.48 271.42 209.02 279.84 203.00 287.00
C 203.16 286.77 204.00 287.00 204.00 287.00
C 210.11 279.53 215.09 270.92 215.00 261.00
C 202.01 270.45 182.44 282.05 175.00 298.00 Z"/>
</g>
<g fill="None" fill-opacity="0.0" stroke="#1F2220" stroke-opacity="0.99" stroke-width="0.3"><path d="
M 196.00 276.00 
C 190.81 281.19 184.92 286.68 180.00 292.00
C 178.50 293.90 176.20 296.11 175.00 298.00
C 174.50 299.06 174.34 299.94 174.00 301.00
C 173.99 302.00 174.01 303.00 174.00 304.00
C 180.56 304.90 185.72 300.95 191.00 298.00
C 191.00 298.00 191.61 298.21 192.00 298.00
C 194.99 293.72 199.58 290.70 203.00 287.00
C 209.02 279.84 213.48 271.42 214.00 262.00
C 207.62 265.46 201.72 271.12 196.00 276.00 Z"/>
</g>
<g fill="None" fill-opacity="0.0" stroke="#B2B4B0" stroke-opacity="0.29" stroke-width="0.3"><path d="
M 299.00 266.00 
C 296.11 266.18 298.89 269.69 296.00 269.00
C 296.00 267.33 296.01 265.67 296.00 264.00
C 293.94 265.07 295.47 268.12 295.00 270.00
C 298.62 271.02 298.30 268.06 299.00 266.00 Z"/>
</g>
<g fill="None" fill-opacity="0.0" stroke="#C4C4C0" stroke-opacity="0.23" stroke-width="0.3"><path d="
M 258.00 279.00 
C 260.58 276.00 262.34 270.03 263.00 266.00
C 260.42 269.00 258.66 274.97 258.00 279.00 Z"/>
</g>
<g fill="None" fill-opacity="0.0" stroke="#BDBDBB" stroke-opacity="0.27" stroke-width="0.3"><path d="
M 260.00 282.00 
C 262.33 277.01 264.51 271.59 266.00 266.00
C 263.88 270.97 261.99 276.19 260.00 282.00 Z"/>
</g>
<g fill="None" fill-opacity="0.0" stroke="#C1C1C0" stroke-opacity="0.24" stroke-width="0.3"><path d="
M 214.00 275.00 
C 215.27 273.77 215.56 272.75 216.00 271.00
C 215.52 272.31 214.12 273.13 214.00 275.00 Z"/>
</g>
<g fill="None" fill-opacity="0.0" stroke="#BCBCB9" stroke-opacity="0.26" stroke-width="0.3"><path d="
M 363.00 290.00 
C 365.00 285.14 366.95 280.52 368.00 275.00
C 366.55 279.65 364.47 285.01 363.00 290.00 Z"/>
</g>
<g fill="None" fill-opacity="0.0" stroke="#52524E" stroke-opacity="0.76" stroke-width="0.3"><path d="
M 180.00 292.00 
C 184.92 286.68 190.81 281.19 196.00 276.00
C 190.45 280.74 184.57 286.21 180.00 292.00 Z"/>
</g>
<g fill="None" fill-opacity="0.0" stroke="#BBBAB7" stroke-opacity="0.27" stroke-width="0.3"><path d="
M 256.00 281.00 
C 254.92 283.47 252.89 288.48 255.00 291.00
C 254.83 286.93 257.92 283.96 258.00 280.00
C 257.45 281.40 256.43 284.00 256.00 281.00 Z"/>
</g>
<g fill="None" fill-opacity="0.0" stroke="#B1B1B0" stroke-opacity="0.31" stroke-width="0.3"><path d="
M 325.00 289.00 
C 325.15 287.47 325.75 284.16 326.00 282.00
C 325.58 283.99 325.05 286.36 325.00 289.00 Z"/>
</g>
<g fill="None" fill-opacity="0.0" stroke="#777874" stroke-opacity="0.57" stroke-width="0.3"><path d="
M 192.00 298.00 
C 193.38 297.28 194.77 296.01 196.00 295.00
C 198.37 292.72 201.14 289.66 203.00 287.00
C 199.58 290.70 194.99 293.72 192.00 298.00 Z"/>
</g>
<g fill="None" fill-opacity="0.0" stroke="#FFFFFF" stroke-opacity="0.05" stroke-width="0.3"><path d="
M 196.00 295.00 
C 198.89 292.63 201.64 289.99 204.00 287.00
C 204.00 287.00 203.16 286.77 203.00 287.00
C 201.14 289.66 198.37 292.72 196.00 295.00 Z"/>
</g>
<g fill="None" fill-opacity="0.0" stroke="#C8C9C6" stroke-opacity="0.22" stroke-width="0.3"><path d="
M 325.00 297.00 
C 325.38 303.01 331.99 297.10 332.00 294.00
C 328.76 292.61 328.81 294.57 328.00 291.00
C 325.14 293.42 328.38 296.09 331.00 294.00
C 330.85 296.90 326.68 300.82 325.00 297.00 Z"/>
</g>
<g fill="None" fill-opacity="0.0" stroke="#B3B2AF" stroke-opacity="0.31" stroke-width="0.3"><path d="
M 174.00 301.00 
C 172.24 301.50 173.28 303.72 173.00 305.00
C 179.91 305.74 186.48 302.72 191.00 298.00
C 185.72 300.95 180.56 304.90 174.00 304.00
C 174.01 303.00 173.99 302.00 174.00 301.00 Z"/>
</g>
<g fill="None" fill-opacity="0.0" stroke="#B8B7B5" stroke-opacity="0.28" stroke-width="0.3"><path d="
M 357.00 303.00 
C 357.86 301.45 359.09 299.89 360.00 298.00
C 359.02 299.63 357.90 300.98 357.00 303.00 Z"/>
</g>
<g fill="None" fill-opacity="0.0" stroke="#B1B2AF" stroke-opacity="0.22" stroke-width="0.3"><path d="
M 252.00 309.00 
C 250.56 308.94 251.26 310.92 250.00 311.00
C 249.71 306.03 249.27 310.38 248.00 312.00
C 248.03 310.67 247.96 309.33 248.00 308.00
C 245.31 309.61 247.98 314.27 251.00 313.00
C 251.25 311.67 251.52 310.21 252.00 309.00 Z"/>
</g>
<g fill="None" fill-opacity="0.0" stroke="#C2C3C1" stroke-opacity="0.23" stroke-width="0.3"><path d="
M 343.00 323.00 
C 343.52 322.52 344.51 322.40 345.00 322.00
C 348.31 317.81 351.21 313.51 354.00 309.00
C 350.59 313.40 347.14 318.86 343.00 323.00 Z"/>
</g>
<g fill="None" fill-opacity="0.0" stroke="#B7B8B3" stroke-opacity="0.28" stroke-width="0.3"><path d="
M 172.00 319.00 
C 170.69 315.38 167.20 312.85 165.00 310.00
C 166.95 313.16 168.77 316.89 172.00 319.00 Z"/>
</g>
<g fill="None" fill-opacity="0.0" stroke="#B5B4B2" stroke-opacity="0.30" stroke-width="0.3"><path d="
M 191.00 338.00 
C 184.44 332.93 179.05 324.93 172.00 320.00
C 175.66 327.50 184.83 333.27 191.00 338.00 Z"/>
</g>
<g fill="None" fill-opacity="0.0" stroke="#F1F3EF" stroke-opacity="0.06" stroke-width="0.3"><path d="
M 343.00 323.00 
C 339.26 326.49 336.23 331.04 332.00 334.00
C 331.77 334.16 332.00 335.00 332.00 335.00
C 336.53 331.13 341.25 326.75 345.00 322.00
C 344.51 322.40 343.52 322.52 343.00 323.00 Z"/>
</g>
<g fill="None" fill-opacity="0.0" stroke="#494A48" stroke-opacity="0.78" stroke-width="0.3"><path d="
M 332.00 334.00 
C 336.23 331.04 339.26 326.49 343.00 323.00
C 339.46 326.54 335.59 330.41 332.00 334.00 Z"/>
</g>
<g fill="None" fill-opacity="0.0" stroke="#B9BCB8" stroke-opacity="0.24" stroke-width="0.3"><path d="
M 253.00 342.00 
C 252.66 342.81 252.48 328.99 253.00 330.00
C 252.23 328.73 251.34 329.25 250.00 329.00
C 248.65 328.22 247.28 327.70 246.00 329.00
C 248.11 333.53 246.49 339.04 247.00 344.00
C 249.90 344.69 251.24 343.66 253.00 342.00
M 249.00 331.00 
C 250.12 331.26 250.14 329.28 251.00 331.00
C 252.00 333.00 251.34 340.71 250.00 342.00
C 249.74 342.25 249.00 342.00 249.00 342.00
C 247.42 343.05 248.84 330.99 247.00 329.00
C 248.41 328.49 249.15 329.81 249.00 331.00 Z"/>
</g>
<g fill="None" fill-opacity="0.0" stroke="#686764" stroke-opacity="0.67" stroke-width="0.3"><path d="
M 250.00 329.00 
C 251.34 329.25 252.23 328.73 253.00 330.00
C 254.78 332.94 251.59 338.83 253.00 342.00
C 253.26 341.75 254.84 341.77 255.00 342.00
C 255.00 339.42 255.36 336.55 255.00 334.00
C 254.36 329.51 253.30 329.10 250.00 329.00 Z"/>
</g>
<g fill="None" fill-opacity="0.0" stroke="#000000" stroke-opacity="0.00" stroke-width="0.3"><path d="
M 249.00 342.00 
C 248.67 338.43 249.65 334.52 249.00 331.00
C 249.15 329.81 248.41 328.49 247.00 329.00
C 248.84 330.99 247.42 343.05 249.00 342.00 Z"/>
</g>
<g fill="None" fill-opacity="0.0" stroke="#4D4E4C" stroke-opacity="0.77" stroke-width="0.3"><path d="
M 249.00 331.00 
C 249.65 334.52 248.67 338.43 249.00 342.00
C 249.00 342.00 249.74 342.25 250.00 342.00
C 250.18 340.05 251.26 331.78 251.00 331.00
C 250.14 329.28 250.12 331.26 249.00 331.00 Z"/>
</g>
<g fill="None" fill-opacity="0.0" stroke="#000000" stroke-opacity="0.00" stroke-width="0.3"><path d="
M 253.00 342.00 
C 251.59 338.83 254.78 332.94 253.00 330.00
C 252.48 328.99 252.66 342.81 253.00 342.00 Z"/>
</g>
<g fill="None" fill-opacity="0.0" stroke="#1E1F1B" stroke-opacity="1.00" stroke-width="0.3"><path d="
M 250.00 342.00 
C 251.34 340.71 252.00 333.00 251.00 331.00
C 251.26 331.78 250.18 340.05 250.00 342.00 Z"/>
</g>
<g fill="None" fill-opacity="0.0" stroke="#A8A8A7" stroke-opacity="0.35" stroke-width="0.3"><path d="
M 255.00 334.00 
C 255.02 333.75 255.94 336.62 256.00 337.00
C 256.28 336.71 258.73 336.69 259.00 336.00
C 258.87 335.54 259.00 334.50 259.00 334.00
C 259.00 333.50 258.77 332.34 259.00 332.00
C 257.65 331.72 255.15 332.22 255.00 334.00 Z"/>
</g>
<g fill="None" fill-opacity="0.0" stroke="#454643" stroke-opacity="0.63" stroke-width="0.3"><path d="
M 259.00 334.00 
C 260.54 334.45 260.12 336.75 262.00 337.00
C 261.91 336.01 262.12 334.99 262.00 334.00
C 261.76 333.74 260.90 333.18 261.00 333.00
C 260.84 333.29 259.21 332.04 259.00 332.00
C 258.77 332.34 259.00 333.50 259.00 334.00 Z"/>
</g>
<g fill="None" fill-opacity="0.0" stroke="#B2B4B2" stroke-opacity="0.20" stroke-width="0.3"><path d="
M 261.00 333.00 
C 260.90 333.18 261.76 333.74 262.00 334.00
C 264.80 335.76 259.73 340.09 263.00 342.00
C 263.58 337.55 265.63 333.10 261.00 333.00 Z"/>
</g>
<g fill="None" fill-opacity="0.0" stroke="#747674" stroke-opacity="0.57" stroke-width="0.3"><path d="
M 265.00 339.00 
C 265.15 338.77 266.00 339.00 266.00 339.00
C 265.98 337.00 266.00 335.00 266.00 333.00
C 266.00 332.50 266.00 332.00 266.00 332.00
C 264.57 333.37 264.61 336.88 265.00 339.00 Z"/>
</g>
<g fill="None" fill-opacity="0.0" stroke="#A6A7A5" stroke-opacity="0.36" stroke-width="0.3"><path d="
M 266.00 333.00 
C 268.31 333.67 265.80 337.26 268.00 338.00
C 267.60 335.69 269.20 332.18 266.00 332.00
C 266.00 332.00 266.00 332.50 266.00 333.00 Z"/>
</g>
<g fill="None" fill-opacity="0.0" stroke="#000000" stroke-opacity="0.00" stroke-width="0.3"><path d="
M 255.00 342.00 
C 255.00 342.00 254.76 342.82 255.00 343.00
C 256.52 341.06 256.36 339.18 256.00 337.00
C 255.94 336.62 255.02 333.75 255.00 334.00
C 255.36 336.55 255.00 339.42 255.00 342.00 Z"/>
</g>
<g fill="None" fill-opacity="0.0" stroke="#B9B9B7" stroke-opacity="0.27" stroke-width="0.3"><path d="
M 313.00 348.00 
C 319.78 344.83 326.24 339.92 332.00 335.00
C 332.00 335.00 331.77 334.16 332.00 334.00
C 326.75 339.25 319.04 344.15 313.00 348.00 Z"/>
</g>
<g fill="None" fill-opacity="0.0" stroke="#D2D2D1" stroke-opacity="0.18" stroke-width="0.3"><path d="
M 256.00 337.00 
C 256.36 339.18 256.52 341.06 255.00 343.00
C 255.78 344.94 258.43 343.61 260.00 344.00
C 258.72 340.87 258.61 339.36 257.00 343.00
C 255.83 339.80 259.55 337.93 259.00 336.00
C 258.73 336.69 256.28 336.71 256.00 337.00 Z"/>
</g>
<g fill="None" fill-opacity="0.0" stroke="#CFCFCD" stroke-opacity="0.18" stroke-width="0.3"><path d="
M 214.00 352.00 
C 207.23 346.57 198.16 343.54 191.00 338.00
C 197.86 343.26 205.21 349.94 214.00 352.00 Z"/>
</g>
<g fill="None" fill-opacity="0.0" stroke="#CFCFCE" stroke-opacity="0.18" stroke-width="0.3"><path d="
M 266.00 339.00 
C 266.00 339.00 265.15 338.77 265.00 339.00
C 263.91 340.55 264.13 342.47 263.00 344.00
C 266.80 343.68 266.02 341.15 266.00 339.00 Z"/>
</g>
<g fill="None" fill-opacity="0.0" stroke="#C1C1C0" stroke-opacity="0.25" stroke-width="0.3"><path d="
M 297.00 355.00 
C 301.71 353.39 305.70 351.04 310.00 349.00
C 305.43 350.45 301.11 353.08 297.00 355.00 Z"/>
</g>
<g fill="None" fill-opacity="0.0" stroke="#ABABA8" stroke-opacity="0.35" stroke-width="0.3"><path d="
M 219.00 354.00 
C 217.91 352.87 216.73 352.11 215.00 352.00
C 216.09 353.13 217.27 353.89 219.00 354.00 Z"/>
</g>
<g fill="None" fill-opacity="0.0" stroke="#C7C7C6" stroke-opacity="0.22" stroke-width="0.3"><path d="
M 231.00 358.00 
C 228.55 356.01 223.30 354.54 220.00 354.00
C 222.61 356.24 227.39 357.86 231.00 358.00 Z"/>
</g>
<g fill="None" fill-opacity="0.0" stroke="#C9C9C7" stroke-opacity="0.21" stroke-width="0.3"><path d="
M 240.00 360.00 
C 237.70 359.39 234.74 358.45 232.00 358.00
C 234.43 359.97 236.86 359.50 240.00 360.00 Z"/>
</g>
<g fill="None" fill-opacity="0.0" stroke="#BCBCBB" stroke-opacity="0.27" stroke-width="0.3"><path d="
M 278.00 360.00 
C 281.08 359.53 283.44 358.70 286.00 358.00
C 283.22 358.44 280.35 359.39 278.00 360.00 Z"/>
</g>
<g fill="None" fill-opacity="0.0" stroke="#FEFEFE" stroke-opacity="0.02" stroke-width="0.3"><path d="
M 267.00 361.00 
C 261.00 361.00 255.00 361.00 249.00 361.00
C 254.60 361.54 261.33 361.55 267.00 361.00 Z"/>
</g>
<g fill="#000000" fill-opacity="0.00" stroke="None">
<path d="
M 0.00 500.00 
L 500.00 500.00
L 500.00 0.00
L 0.00 0.00
L 0.00 500.00
M 267.00 139.00 
C 268.00 139.00 269.00 139.03 270.00 139.00
C 275.99 138.84 280.91 140.60 286.00 142.00
C 289.02 142.48 291.13 143.02 294.00 144.00
C 299.52 145.89 305.42 147.33 310.00 151.00
C 310.47 151.11 311.00 151.00 311.00 151.00
C 318.61 153.99 325.78 159.69 332.00 165.00
C 336.32 168.69 342.04 173.14 345.00 178.00
C 345.33 178.55 345.64 179.55 346.00 180.00
C 348.85 183.56 351.54 187.03 354.00 191.00
C 356.15 194.47 357.72 197.31 359.00 201.00
C 360.27 203.65 362.26 205.86 363.00 209.00
C 363.11 209.47 363.00 210.00 363.00 210.00
C 365.62 213.05 365.94 217.14 367.00 221.00
C 368.56 226.66 369.77 231.93 370.00 238.00
C 371.07 245.51 371.06 254.56 370.00 262.00
C 369.82 266.66 368.83 270.60 368.00 275.00
C 366.95 280.52 365.00 285.14 363.00 290.00
C 362.15 292.89 361.35 295.20 360.00 298.00
C 359.09 299.89 357.86 301.45 357.00 303.00
C 356.06 305.10 355.27 306.95 354.00 309.00
C 351.21 313.51 348.31 317.81 345.00 322.00
C 341.25 326.75 336.53 331.13 332.00 335.00
C 326.24 339.92 319.78 344.83 313.00 348.00
C 311.89 348.52 311.15 348.64 310.00 349.00
C 305.70 351.04 301.71 353.39 297.00 355.00
C 293.17 356.31 290.06 357.35 286.00 358.00
C 283.44 358.70 281.08 359.53 278.00 360.00
C 274.36 360.56 270.93 361.00 267.00 361.00
C 261.33 361.55 254.60 361.54 249.00 361.00
C 245.69 361.00 243.01 360.48 240.00 360.00
C 236.86 359.50 234.43 359.97 232.00 358.00
C 231.51 357.92 231.00 358.00 231.00 358.00
C 227.39 357.86 222.61 356.24 220.00 354.00
C 219.51 353.92 219.00 354.00 219.00 354.00
C 217.27 353.89 216.09 353.13 215.00 352.00
C 214.50 351.97 214.00 352.00 214.00 352.00
C 205.21 349.94 197.86 343.26 191.00 338.00
C 184.83 333.27 175.66 327.50 172.00 320.00
C 171.80 319.60 172.00 319.00 172.00 319.00
C 168.77 316.89 166.95 313.16 165.00 310.00
C 149.42 284.84 144.45 256.30 150.00 227.00
C 150.47 224.54 151.42 222.04 152.00 220.00
C 152.64 216.27 153.69 213.54 155.00 210.00
C 155.85 207.70 156.51 205.86 158.00 204.00
C 158.11 203.53 158.00 203.00 158.00 203.00
C 158.73 199.90 160.57 198.40 162.00 196.00
C 162.97 193.95 163.75 192.03 165.00 190.00
C 171.99 178.71 181.53 167.13 193.00 160.00
C 193.36 159.78 194.00 160.00 194.00 160.00
C 198.03 153.82 209.31 149.26 216.00 147.00
C 217.40 146.53 218.57 146.38 220.00 146.00
C 221.18 145.55 222.55 144.50 224.00 144.00
C 225.48 143.49 226.39 143.27 228.00 143.00
C 234.30 141.18 240.78 138.81 248.00 139.00
C 249.00 139.03 250.00 139.00 251.00 139.00
C 256.08 137.88 261.98 137.90 267.00 139.00 Z"/>
</g>
<g fill="#FEFEFE" fill-opacity="0.02" stroke="None">
<path d="
M 251.00 139.00 
C 256.33 139.00 261.67 139.00 267.00 139.00
C 261.98 137.90 256.08 137.88 251.00 139.00 Z"/>
</g>
<g fill="#A8A9A6" fill-opacity="0.35" stroke="None">
<path d="
M 228.00 143.00 
C 234.63 141.88 241.79 140.11 248.00 139.00
C 240.78 138.81 234.30 141.18 228.00 143.00 Z"/>
</g>
<g fill="#1F2221" fill-opacity="0.98" stroke="None">
<path d="
M 228.00 143.00 
C 226.39 143.27 225.48 143.49 224.00 144.00
C 222.61 144.66 221.75 145.54 220.00 146.00
C 218.57 146.38 217.40 146.53 216.00 147.00
C 208.52 150.52 201.16 155.54 194.00 160.00
C 194.00 160.00 193.36 159.78 193.00 160.00
C 189.48 165.40 182.53 168.93 178.25 174.25 C 173.96 179.56 169.02 184.81 165.00 190.00
C 163.75 192.03 162.97 193.95 162.00 196.00
C 160.82 198.50 159.61 200.99 158.00 203.00
C 158.00 203.00 158.11 203.53 158.00 204.00
C 157.43 206.43 155.99 208.03 155.00 210.00
C 153.69 213.54 152.64 216.27 152.00 220.00
C 151.53 222.71 150.69 224.77 150.00 227.00
C 144.45 256.30 149.42 284.84 165.00 310.00
C 167.20 312.85 170.69 315.38 172.00 319.00
C 172.00 319.00 171.80 319.60 172.00 320.00
C 179.05 324.93 184.44 332.93 191.00 338.00
C 198.16 343.54 207.23 346.57 214.00 352.00
C 214.00 352.00 214.50 351.97 215.00 352.00
C 216.73 352.11 217.91 352.87 219.00 354.00
C 219.00 354.00 219.51 353.92 220.00 354.00
C 223.30 354.54 228.55 356.01 231.00 358.00
C 231.00 358.00 231.51 357.92 232.00 358.00
C 234.74 358.45 237.70 359.39 240.00 360.00
C 243.01 360.48 245.69 361.00 249.00 361.00
C 255.00 361.00 261.00 361.00 267.00 361.00
C 270.93 361.00 274.36 360.56 278.00 360.00
C 280.35 359.39 283.22 358.44 286.00 358.00
C 290.06 357.35 293.17 356.31 297.00 355.00
C 301.11 353.08 305.43 350.45 310.00 349.00
C 311.15 348.64 311.89 348.52 313.00 348.00
C 319.04 344.15 326.75 339.25 332.00 334.00
C 335.59 330.41 339.46 326.54 343.00 323.00
C 347.14 318.86 350.59 313.40 354.00 309.00
C 355.27 306.95 356.06 305.10 357.00 303.00
C 357.90 300.98 359.02 299.63 360.00 298.00
C 361.35 295.20 362.15 292.89 363.00 290.00
C 364.47 285.01 366.55 279.65 368.00 275.00
C 368.83 270.60 369.82 266.66 370.00 262.00
C 370.30 254.08 370.30 245.92 370.00 238.00
C 369.77 231.93 368.56 226.66 367.00 221.00
C 365.72 217.62 363.64 213.91 363.00 210.00
C 363.00 210.00 363.11 209.47 363.00 209.00
C 361.10 206.63 360.02 203.93 359.00 201.00
C 357.72 197.31 356.15 194.47 354.00 191.00
C 351.38 187.62 348.76 183.29 346.00 180.00
C 342.02 175.25 336.37 170.37 332.00 166.00
C 326.40 160.40 314.88 157.21 311.00 151.00
C 311.00 151.00 310.47 151.11 310.00 151.00
C 304.56 149.72 298.79 146.24 294.00 144.00
C 291.13 143.02 289.02 142.48 286.00 142.00
C 280.72 141.16 274.83 140.06 270.00 139.00
C 269.00 139.03 268.00 139.00 267.00 139.00
C 261.67 139.00 256.33 139.00 251.00 139.00
C 250.00 139.00 249.00 139.03 248.00 139.00
C 241.79 140.11 234.63 141.88 228.00 143.00
M 229.00 177.00 
C 233.64 178.71 236.26 182.68 235.00 188.00
C 234.00 187.89 232.27 188.47 232.00 187.00
C 229.65 183.77 233.45 182.30 229.00 180.00
C 227.20 179.39 222.89 179.69 221.00 180.00
C 213.12 181.28 205.62 187.01 198.00 190.00
C 197.57 190.17 197.00 190.00 197.00 190.00
C 192.65 194.54 186.23 198.21 181.00 202.00
C 177.25 205.47 174.23 210.04 170.00 213.00
C 169.79 213.39 170.00 214.00 170.00 214.00
C 169.15 216.17 166.43 219.13 166.00 221.00
C 164.20 234.57 186.44 238.94 196.00 242.00
C 203.05 244.26 213.27 255.80 219.00 253.00
C 220.77 252.14 222.31 251.23 224.00 250.00
C 225.82 248.32 230.19 243.99 232.08 243.08 C 233.97 242.18 240.57 236.36 241.00 239.00
C 241.16 239.97 239.47 241.46 239.00 242.00
C 233.31 248.53 223.77 252.89 217.00 258.00
C 215.64 261.73 216.99 267.06 216.00 271.00
C 215.56 272.75 215.27 273.77 214.00 275.00
C 213.97 275.50 214.00 276.00 214.00 276.00
C 213.05 286.12 200.68 291.98 195.25 299.25 C 189.82 306.52 167.74 312.07 170.33 300.33 C 172.92 288.59 182.64 285.60 189.25 277.25 C 195.86 268.90 205.33 264.71 213.00 258.00
C 213.19 257.59 213.00 257.00 213.00 257.00
C 210.66 255.36 208.60 253.29 207.00 251.00
C 206.57 250.83 206.00 251.00 206.00 251.00
C 203.32 249.95 199.52 248.44 198.00 246.00
C 197.57 245.83 197.00 246.00 197.00 246.00
C 192.78 245.01 187.27 242.62 184.00 240.00
C 183.53 239.89 183.00 240.00 183.00 240.00
C 179.24 239.12 174.92 237.34 172.00 235.00
C 171.53 234.89 171.00 235.00 171.00 235.00
C 167.99 233.91 164.62 231.18 164.00 228.00
C 163.91 227.52 164.00 227.00 164.00 227.00
C 160.65 222.48 165.00 214.60 168.00 211.00
C 168.13 210.65 168.68 210.20 169.00 210.00
C 169.08 210.06 169.96 208.06 170.00 208.00
C 171.94 204.82 175.28 202.33 178.00 200.00
C 188.88 190.70 200.83 183.86 214.00 179.00
C 216.38 178.12 217.97 177.07 221.00 177.00
C 221.50 176.99 222.00 177.00 222.00 177.00
C 224.34 175.27 226.74 176.17 229.00 177.00
M 343.00 182.00 
C 344.55 186.19 343.73 190.93 343.00 195.00
C 342.75 198.73 342.23 202.13 342.00 206.00
C 341.74 210.38 341.07 213.87 340.00 218.00
C 337.05 229.38 335.53 241.24 334.00 253.00
C 333.58 256.19 332.70 259.31 332.00 262.00
C 330.71 271.66 328.00 280.93 328.00 291.00
C 328.81 294.57 328.76 292.61 332.00 294.00
C 331.99 297.10 325.38 303.01 325.00 297.00
C 324.34 294.83 324.95 291.28 325.00 289.00
C 325.05 286.36 325.58 283.99 326.00 282.00
C 329.36 253.45 340.00 225.25 340.00 196.00
C 340.00 191.33 340.00 186.67 340.00 182.00
C 340.00 181.50 340.00 181.00 340.00 181.00
C 336.64 180.58 334.77 183.75 333.00 186.00
C 331.30 188.15 329.86 190.22 328.00 192.00
C 327.84 192.44 328.00 193.00 328.00 193.00
C 325.36 199.73 321.38 208.53 317.00 214.00
C 316.89 214.47 317.00 215.00 317.00 215.00
C 315.85 219.91 313.11 224.74 311.00 229.00
C 305.19 240.74 303.47 253.89 299.00 266.00
C 298.30 268.06 298.62 271.02 295.00 270.00
C 295.47 268.12 293.94 265.07 296.00 264.00
C 297.82 254.49 300.00 245.01 300.00 235.00
C 300.00 231.68 299.87 228.66 301.00 226.00
C 301.00 225.50 301.00 224.50 301.00 224.00
C 301.00 217.78 301.65 211.18 301.00 205.00
C 300.86 203.63 301.01 202.10 300.00 201.00
C 296.82 198.86 291.52 208.55 290.00 210.00
C 289.91 210.48 290.00 211.00 290.00 211.00
C 287.16 218.24 282.78 225.51 279.00 232.00
C 276.38 238.07 273.97 243.76 272.00 250.00
C 271.48 251.66 270.73 252.66 270.00 254.00
C 268.36 258.11 267.14 261.74 266.00 266.00
C 264.51 271.59 262.33 277.01 260.00 282.00
C 256.99 290.79 255.37 300.42 252.00 309.00
C 251.52 310.21 251.25 311.67 251.00 313.00
C 247.98 314.27 245.31 309.61 248.00 308.00
C 248.28 297.51 252.47 286.48 254.00 276.00
C 255.01 269.09 255.78 259.89 259.00 254.00
C 259.01 253.50 259.00 253.00 259.00 253.00
C 259.07 250.02 259.73 247.31 261.00 245.00
C 261.01 244.50 261.00 244.00 261.00 244.00
C 261.15 237.77 263.18 228.16 266.00 223.00
C 266.01 222.50 266.00 222.00 266.00 222.00
C 266.07 219.02 266.73 216.31 268.00 214.00
C 268.01 213.50 268.00 213.00 268.00 213.00
C 268.12 208.02 269.78 201.06 272.00 197.00
C 272.01 196.50 272.00 196.00 272.00 196.00
C 272.00 192.02 272.68 187.56 271.00 184.00
C 261.57 186.41 256.22 196.64 250.00 203.00
C 249.84 203.44 250.00 204.00 250.00 204.00
C 248.28 208.37 245.69 215.68 243.00 219.00
C 242.98 219.50 243.00 220.00 243.00 220.00
C 243.00 229.55 244.20 231.54 251.00 237.00
C 251.47 237.11 252.00 237.00 252.00 237.00
C 253.44 236.84 260.24 236.73 258.00 239.00
C 257.78 240.29 255.92 239.92 255.00 240.00
C 249.68 240.44 243.50 238.10 241.00 233.00
C 240.80 232.60 241.00 232.00 241.00 232.00
C 238.14 229.81 238.12 222.54 240.00 220.00
C 240.00 219.50 240.00 219.00 240.00 219.00
C 240.25 212.34 245.85 202.97 249.77 197.77 C 253.69 192.57 259.70 184.19 266.00 182.00
C 267.06 181.63 269.84 180.92 271.00 181.00
C 278.09 181.50 275.89 191.19 275.00 195.00
C 268.28 223.89 262.60 252.63 256.00 281.00
C 256.43 284.00 257.45 281.40 258.00 280.00
C 258.01 279.50 258.00 279.00 258.00 279.00
C 258.66 274.97 260.42 269.00 263.00 266.00
C 263.08 265.51 263.00 265.00 263.00 265.00
C 263.43 262.40 264.37 259.90 266.00 258.00
C 266.08 257.51 266.00 257.00 266.00 257.00
C 266.62 253.21 268.60 247.80 271.00 245.00
C 271.08 244.51 271.00 244.00 271.00 244.00
C 272.03 239.61 274.25 234.43 277.00 231.00
C 277.11 230.53 277.00 230.00 277.00 230.00
C 278.75 222.55 284.54 211.23 290.00 206.00
C 290.16 205.56 290.00 205.00 290.00 205.00
C 292.58 197.86 303.66 193.26 304.00 204.00
C 304.02 204.50 304.00 205.50 304.00 206.00
C 306.06 210.84 304.50 217.29 304.00 222.00
C 304.00 223.67 304.00 225.33 304.00 227.00
C 304.00 231.57 303.74 235.64 303.00 240.00
C 304.26 239.92 303.56 237.94 305.00 238.00
C 305.08 237.51 305.00 237.00 305.00 237.00
C 306.67 226.77 312.90 216.50 317.00 207.00
C 318.31 203.97 318.96 199.89 322.00 198.00
C 322.17 197.57 322.00 197.00 322.00 197.00
C 324.30 191.15 337.90 168.18 343.00 182.00
M 250.00 329.00 
C 253.30 329.10 254.36 329.51 255.00 334.00
C 255.15 332.22 257.65 331.72 259.00 332.00
C 259.21 332.04 260.84 333.29 261.00 333.00
C 265.63 333.10 263.58 337.55 263.00 342.00
C 259.73 340.09 264.80 335.76 262.00 334.00
C 262.12 334.99 261.91 336.01 262.00 337.00
C 260.12 336.75 260.54 334.45 259.00 334.00
C 259.00 334.50 258.87 335.54 259.00 336.00
C 259.55 337.93 255.83 339.80 257.00 343.00
C 258.61 339.36 258.72 340.87 260.00 344.00
C 258.43 343.61 255.78 344.94 255.00 343.00
C 254.76 342.82 255.00 342.00 255.00 342.00
C 254.84 341.77 253.26 341.75 253.00 342.00
C 251.24 343.66 249.90 344.69 247.00 344.00
C 246.49 339.04 248.11 333.53 246.00 329.00
C 247.28 327.70 248.65 328.22 250.00 329.00
M 266.00 333.00 
C 266.00 335.00 265.98 337.00 266.00 339.00
C 266.02 341.15 266.80 343.68 263.00 344.00
C 264.13 342.47 263.91 340.55 265.00 339.00
C 264.61 336.88 264.57 333.37 266.00 332.00
C 269.20 332.18 267.60 335.69 268.00 338.00
C 265.80 337.26 268.31 333.67 266.00 333.00 Z"/>
</g>
<g fill="#AFAEAC" fill-opacity="0.32" stroke="None">
<path d="
M 286.00 142.00 
C 280.91 140.60 275.99 138.84 270.00 139.00
C 274.83 140.06 280.72 141.16 286.00 142.00 Z"/>
</g>
<g fill="#CACBC9" fill-opacity="0.21" stroke="None">
<path d="
M 220.00 146.00 
C 221.75 145.54 222.61 144.66 224.00 144.00
C 222.55 144.50 221.18 145.55 220.00 146.00 Z"/>
</g>
<g fill="#BBBBBB" fill-opacity="0.27" stroke="None">
<path d="
M 310.00 151.00 
C 305.42 147.33 299.52 145.89 294.00 144.00
C 298.79 146.24 304.56 149.72 310.00 151.00 Z"/>
</g>
<g fill="#C8C9C5" fill-opacity="0.22" stroke="None">
<path d="
M 194.00 160.00 
C 201.16 155.54 208.52 150.52 216.00 147.00
C 209.31 149.26 198.03 153.82 194.00 160.00 Z"/>
</g>
<g fill="#C4C3C2" fill-opacity="0.23" stroke="None">
<path d="
M 332.00 166.00 
C 331.77 165.84 332.00 165.00 332.00 165.00
C 325.78 159.69 318.61 153.99 311.00 151.00
C 314.88 157.21 326.40 160.40 332.00 166.00 Z"/>
</g>
<g fill="#BCBDBA" fill-opacity="0.27" stroke="None">
<path d="
M 165.00 190.00 
C 169.02 184.81 173.96 179.56 178.25 174.25 C 182.53 168.93 189.48 165.40 193.00 160.00
C 181.53 167.13 171.99 178.71 165.00 190.00 Z"/>
</g>
<g fill="#EEEFED" fill-opacity="0.07" stroke="None">
<path d="
M 332.00 166.00 
C 336.47 169.12 341.34 174.08 345.00 178.00
C 342.04 173.14 336.32 168.69 332.00 165.00
C 332.00 165.00 331.77 165.84 332.00 166.00 Z"/>
</g>
<g fill="#5C5D5A" fill-opacity="0.70" stroke="None">
<path d="
M 346.00 180.00 
C 345.64 179.55 345.33 178.55 345.00 178.00
C 341.34 174.08 336.47 169.12 332.00 166.00
C 336.37 170.37 342.02 175.25 346.00 180.00 Z"/>
</g>
<g fill="#82827F" fill-opacity="0.50" stroke="None">
<path d="
M 222.00 177.00 
C 224.06 177.00 227.03 176.44 229.00 177.00
C 226.74 176.17 224.34 175.27 222.00 177.00 Z"/>
</g>
<g fill="#AFAFAD" fill-opacity="0.31" stroke="None">
<path d="
M 214.00 179.00 
C 216.41 178.18 218.90 178.15 221.00 177.00
C 217.97 177.07 216.38 178.12 214.00 179.00 Z"/>
</g>
<g fill="#000000" fill-opacity="0.00" stroke="None">
<path d="
M 214.00 179.00 
C 205.59 181.88 197.34 188.16 189.30 192.30 C 181.27 196.45 176.62 205.29 169.00 210.00
C 168.68 210.20 168.13 210.65 168.00 211.00
C 165.85 216.69 164.00 220.50 164.00 227.00
C 164.00 227.00 163.91 227.52 164.00 228.00
C 165.76 230.75 168.82 232.72 171.00 235.00
C 171.00 235.00 171.53 234.89 172.00 235.00
C 175.76 235.88 180.08 237.66 183.00 240.00
C 183.00 240.00 183.53 239.89 184.00 240.00
C 188.39 241.03 193.57 243.25 197.00 246.00
C 197.00 246.00 197.57 245.83 198.00 246.00
C 200.68 247.05 204.47 248.56 206.00 251.00
C 206.00 251.00 206.57 250.83 207.00 251.00
C 209.43 251.94 212.06 254.58 213.00 257.00
C 213.00 257.00 213.19 257.59 213.00 258.00
C 208.91 267.03 196.46 268.11 190.92 276.92 C 185.38 285.72 174.91 287.12 172.08 299.08 C 169.25 311.03 187.07 305.15 194.75 298.75 C 202.43 292.34 207.99 283.49 214.00 276.00
C 214.00 276.00 213.97 275.50 214.00 275.00
C 214.12 273.13 215.52 272.31 216.00 271.00
C 216.99 267.06 215.64 261.73 217.00 258.00
C 218.38 254.23 225.28 253.06 227.75 249.75 C 230.21 246.43 236.04 244.70 239.00 242.00
C 239.47 241.46 241.16 239.97 241.00 239.00
C 235.68 240.95 229.54 245.96 224.00 250.00
C 222.31 251.23 220.77 252.14 219.00 253.00
C 218.21 253.55 217.54 255.25 217.00 256.00
C 210.24 251.33 203.29 245.68 196.00 242.00
C 186.44 238.94 164.20 234.57 166.00 221.00
C 166.34 218.46 167.80 215.37 170.00 214.00
C 170.00 214.00 169.79 213.39 170.00 213.00
C 170.72 211.62 172.06 210.15 173.00 209.00
C 175.41 206.06 178.06 203.32 181.00 201.00
C 185.77 197.24 191.30 192.06 197.00 190.00
C 197.00 190.00 197.57 190.17 198.00 190.00
C 201.73 184.03 214.62 181.14 221.00 180.00
C 223.85 179.49 226.06 178.48 229.00 180.00
C 233.45 182.30 229.65 183.77 232.00 187.00
C 237.02 185.69 232.35 177.95 229.00 177.00
C 227.03 176.44 224.06 177.00 222.00 177.00
C 222.00 177.00 221.50 176.99 221.00 177.00
C 218.90 178.15 216.41 178.18 214.00 179.00
M 204.00 287.00 
C 201.64 289.99 198.89 292.63 196.00 295.00
C 194.77 296.01 193.38 297.28 192.00 298.00
C 191.61 298.21 191.00 298.00 191.00 298.00
C 186.48 302.72 179.91 305.74 173.00 305.00
C 173.28 303.72 172.24 301.50 174.00 301.00
C 174.34 299.94 174.50 299.06 175.00 298.00
C 182.44 282.05 202.01 270.45 215.00 261.00
C 215.09 270.92 210.11 279.53 204.00 287.00 Z"/>
</g>
<g fill="#D8D9D8" fill-opacity="0.15" stroke="None">
<path d="
M 232.00 187.00 
C 232.27 188.47 234.00 187.89 235.00 188.00
C 236.26 182.68 233.64 178.71 229.00 177.00
C 232.35 177.95 237.02 185.69 232.00 187.00 Z"/>
</g>
<g fill="#C5C5C3" fill-opacity="0.22" stroke="None">
<path d="
M 322.00 197.00 
C 325.84 194.60 327.85 187.39 330.92 183.92 C 333.99 180.44 340.67 174.32 343.00 182.00
C 337.90 168.18 324.30 191.15 322.00 197.00 Z"/>
</g>
<g fill="#000000" fill-opacity="0.00" stroke="None">
<path d="
M 322.00 197.00 
C 322.00 197.00 322.17 197.57 322.00 198.00
C 320.81 201.03 319.27 204.06 318.00 207.00
C 314.19 215.84 311.02 229.97 305.00 237.00
C 305.00 237.00 305.08 237.51 305.00 238.00
C 304.68 239.98 304.00 242.21 303.00 244.00
C 302.52 244.86 302.79 247.04 301.00 247.00
C 301.39 245.43 300.06 242.78 302.00 242.00
C 302.54 237.07 303.53 231.39 304.00 227.00
C 304.00 225.33 304.00 223.67 304.00 222.00
C 304.00 216.67 304.00 211.33 304.00 206.00
C 304.00 205.50 304.02 204.50 304.00 204.00
C 300.39 193.55 295.54 201.13 290.00 205.00
C 290.00 205.00 290.16 205.56 290.00 206.00
C 287.36 213.31 281.73 224.10 277.00 230.00
C 277.00 230.00 277.11 230.53 277.00 231.00
C 276.01 235.22 273.62 240.73 271.00 244.00
C 271.00 244.00 271.08 244.51 271.00 245.00
C 270.38 248.79 268.40 254.20 266.00 257.00
C 266.00 257.00 266.08 257.51 266.00 258.00
C 265.57 260.60 264.63 263.10 263.00 265.00
C 263.00 265.00 263.08 265.51 263.00 266.00
C 262.34 270.03 260.58 276.00 258.00 279.00
C 258.00 279.00 258.01 279.50 258.00 280.00
C 257.92 283.96 254.83 286.93 255.00 291.00
C 252.89 288.48 254.92 283.47 256.00 281.00
C 262.60 252.63 268.28 223.89 275.00 195.00
C 275.42 191.26 276.18 181.78 271.00 181.00
C 269.84 180.92 267.06 181.63 266.00 182.00
C 250.98 188.79 248.62 208.38 240.00 219.00
C 240.00 219.00 240.00 219.50 240.00 220.00
C 240.00 224.11 239.66 228.22 241.00 232.00
C 241.00 232.00 240.80 232.60 241.00 233.00
C 245.53 236.17 249.59 239.76 255.00 240.00
C 255.92 239.92 257.78 240.29 258.00 239.00
C 258.11 238.37 252.56 237.26 252.00 237.00
C 252.00 237.00 251.47 237.11 251.00 237.00
C 244.36 235.44 238.13 226.56 243.00 220.00
C 243.00 220.00 242.98 219.50 243.00 219.00
C 243.16 214.73 246.27 206.33 250.00 204.00
C 250.00 204.00 249.84 203.44 250.00 203.00
C 252.84 195.13 257.02 194.53 262.25 187.25 C 267.48 179.97 278.73 186.91 272.00 196.00
C 272.00 196.00 272.01 196.50 272.00 197.00
C 271.88 201.98 270.22 208.94 268.00 213.00
C 268.00 213.00 268.01 213.50 268.00 214.00
C 267.93 216.98 267.27 219.69 266.00 222.00
C 266.00 222.00 266.01 222.50 266.00 223.00
C 265.85 229.23 263.82 238.83 261.00 244.00
C 261.00 244.00 261.01 244.50 261.00 245.00
C 260.93 247.98 260.26 250.69 259.00 253.00
C 259.00 253.00 259.01 253.50 259.00 254.00
C 258.83 261.48 255.72 269.26 254.00 276.00
C 252.47 286.48 248.28 297.51 248.00 308.00
C 247.96 309.33 248.03 310.67 248.00 312.00
C 249.27 310.38 249.71 306.03 250.00 311.00
C 251.26 310.92 250.56 308.94 252.00 309.00
C 255.37 300.42 256.99 290.79 260.00 282.00
C 261.99 276.19 263.88 270.97 266.00 266.00
C 267.14 261.74 268.36 258.11 270.00 254.00
C 270.54 252.65 271.50 251.12 272.00 250.00
C 273.97 243.76 276.38 238.07 279.00 232.00
C 281.41 226.41 284.67 214.33 290.00 211.00
C 290.00 211.00 289.91 210.48 290.00 210.00
C 290.54 207.22 296.98 197.70 300.00 201.00
C 301.01 202.10 300.86 203.63 301.00 205.00
C 302.23 210.17 303.15 218.94 301.00 224.00
C 301.00 224.50 301.00 225.50 301.00 226.00
C 301.00 229.10 300.23 232.64 300.00 235.00
C 300.00 245.01 297.82 254.49 296.00 264.00
C 296.01 265.67 296.00 267.33 296.00 269.00
C 298.89 269.69 296.11 266.18 299.00 266.00
C 303.47 253.89 305.19 240.74 311.00 229.00
C 312.16 225.51 313.61 218.46 317.00 215.00
C 317.00 215.00 316.89 214.47 317.00 214.00
C 318.22 208.82 323.45 195.84 328.00 193.00
C 328.00 193.00 327.84 192.44 328.00 192.00
C 328.64 190.21 329.89 188.50 331.00 187.00
C 332.72 184.68 337.23 178.16 340.00 181.00
C 340.00 181.00 340.00 181.50 340.00 182.00
C 342.66 185.59 340.35 192.42 340.00 196.00
C 340.00 225.25 329.36 253.45 326.00 282.00
C 325.75 284.16 325.15 287.47 325.00 289.00
C 324.95 291.28 324.34 294.83 325.00 297.00
C 326.68 300.82 330.85 296.90 331.00 294.00
C 328.38 296.09 325.14 293.42 328.00 291.00
C 328.00 280.93 330.71 271.66 332.00 262.00
C 332.46 258.55 333.27 255.85 334.00 253.00
C 335.53 241.24 337.05 229.38 340.00 218.00
C 340.35 215.14 341.51 209.34 342.00 206.00
C 342.23 202.13 342.75 198.73 343.00 195.00
C 343.24 191.45 344.03 185.38 343.00 182.00
C 340.67 174.32 333.99 180.44 330.92 183.92 C 327.85 187.39 325.84 194.60 322.00 197.00 Z"/>
</g>
<g fill="#DDDDDB" fill-opacity="0.14" stroke="None">
<path d="
M 178.00 200.00 
C 175.46 202.54 172.39 205.44 170.00 208.00
C 169.96 208.06 169.08 210.06 169.00 210.00
C 176.62 205.29 181.27 196.45 189.30 192.30 C 197.34 188.16 205.59 181.88 214.00 179.00
C 200.83 183.86 188.88 190.70 178.00 200.00 Z"/>
</g>
<g fill="#E6E6E6" fill-opacity="0.10" stroke="None">
<path d="
M 221.00 180.00 
C 222.89 179.69 227.20 179.39 229.00 180.00
C 226.06 178.48 223.85 179.49 221.00 180.00 Z"/>
</g>
<g fill="#C0C0BC" fill-opacity="0.25" stroke="None">
<path d="
M 198.00 190.00 
C 205.62 187.01 213.12 181.28 221.00 180.00
C 214.62 181.14 201.73 184.03 198.00 190.00 Z"/>
</g>
<g fill="#DEDDDB" fill-opacity="0.14" stroke="None">
<path d="
M 331.00 187.00 
C 331.49 186.55 332.57 186.40 333.00 186.00
C 334.77 183.75 336.64 180.58 340.00 181.00
C 337.23 178.16 332.72 184.68 331.00 187.00 Z"/>
</g>
<g fill="#C5C5C3" fill-opacity="0.24" stroke="None">
<path d="
M 354.00 191.00 
C 351.54 187.03 348.85 183.56 346.00 180.00
C 348.76 183.29 351.38 187.62 354.00 191.00 Z"/>
</g>
<g fill="#CCCCCA" fill-opacity="0.21" stroke="None">
<path d="
M 275.00 195.00 
C 275.89 191.19 278.09 181.50 271.00 181.00
C 276.18 181.78 275.42 191.26 275.00 195.00 Z"/>
</g>
<g fill="#D4D5D4" fill-opacity="0.17" stroke="None">
<path d="
M 240.00 219.00 
C 248.62 208.38 250.98 188.79 266.00 182.00
C 259.70 184.19 253.69 192.57 249.77 197.77 C 245.85 202.97 240.25 212.34 240.00 219.00 Z"/>
</g>
<g fill="#BCBCBA" fill-opacity="0.27" stroke="None">
<path d="
M 340.00 196.00 
C 340.35 192.42 342.66 185.59 340.00 182.00
C 340.00 186.67 340.00 191.33 340.00 196.00 Z"/>
</g>
<g fill="#A5A6A3" fill-opacity="0.36" stroke="None">
<path d="
M 343.00 195.00 
C 343.73 190.93 344.55 186.19 343.00 182.00
C 344.03 185.38 343.24 191.45 343.00 195.00 Z"/>
</g>
<g fill="#B6B6B3" fill-opacity="0.30" stroke="None">
<path d="
M 250.00 203.00 
C 256.22 196.64 261.57 186.41 271.00 184.00
C 272.68 187.56 272.00 192.02 272.00 196.00
C 278.73 186.91 267.48 179.97 262.25 187.25 C 257.02 194.53 252.84 195.13 250.00 203.00 Z"/>
</g>
<g fill="#B4B4B1" fill-opacity="0.29" stroke="None">
<path d="
M 331.00 187.00 
C 329.89 188.50 328.64 190.21 328.00 192.00
C 329.86 190.22 331.30 188.15 333.00 186.00
C 332.57 186.40 331.49 186.55 331.00 187.00 Z"/>
</g>
<g fill="#C6C6C2" fill-opacity="0.25" stroke="None">
<path d="
M 181.00 201.00 
C 180.75 201.27 181.00 202.00 181.00 202.00
C 186.23 198.21 192.65 194.54 197.00 190.00
C 191.30 192.06 185.77 197.24 181.00 201.00 Z"/>
</g>
<g fill="#B6B7B6" fill-opacity="0.29" stroke="None">
<path d="
M 317.00 214.00 
C 321.38 208.53 325.36 199.73 328.00 193.00
C 323.45 195.84 318.22 208.82 317.00 214.00 Z"/>
</g>
<g fill="#C9CAC8" fill-opacity="0.21" stroke="None">
<path d="
M 158.00 203.00 
C 159.61 200.99 160.82 198.50 162.00 196.00
C 160.57 198.40 158.73 199.90 158.00 203.00 Z"/>
</g>
<g fill="#B9B9B8" fill-opacity="0.28" stroke="None">
<path d="
M 268.00 213.00 
C 270.22 208.94 271.88 201.98 272.00 197.00
C 269.78 201.06 268.12 208.02 268.00 213.00 Z"/>
</g>
<g fill="#AEAFAD" fill-opacity="0.32" stroke="None">
<path d="
M 290.00 205.00 
C 295.54 201.13 300.39 193.55 304.00 204.00
C 303.66 193.26 292.58 197.86 290.00 205.00 Z"/>
</g>
<g fill="#A3A4A3" fill-opacity="0.36" stroke="None">
<path d="
M 317.00 207.00 
C 317.12 206.78 318.00 207.00 318.00 207.00
C 319.27 204.06 320.81 201.03 322.00 198.00
C 318.96 199.89 318.31 203.97 317.00 207.00 Z"/>
</g>
<g fill="#7B7B77" fill-opacity="0.55" stroke="None">
<path d="
M 170.00 208.00 
C 172.39 205.44 175.46 202.54 178.00 200.00
C 175.28 202.33 171.94 204.82 170.00 208.00 Z"/>
</g>
<g fill="#E5E8E5" fill-opacity="0.10" stroke="None">
<path d="
M 290.00 210.00 
C 291.52 208.55 296.82 198.86 300.00 201.00
C 296.98 197.70 290.54 207.22 290.00 210.00 Z"/>
</g>
<g fill="#FEFEFE" fill-opacity="0.02" stroke="None">
<path d="
M 173.00 209.00 
C 175.28 206.63 178.34 203.86 181.00 202.00
C 181.00 202.00 180.75 201.27 181.00 201.00
C 178.06 203.32 175.41 206.06 173.00 209.00 Z"/>
</g>
<g fill="#ADADA7" fill-opacity="0.34" stroke="None">
<path d="
M 363.00 209.00 
C 362.26 205.86 360.27 203.65 359.00 201.00
C 360.02 203.93 361.10 206.63 363.00 209.00 Z"/>
</g>
<g fill="#898A88" fill-opacity="0.49" stroke="None">
<path d="
M 173.00 209.00 
C 172.06 210.15 170.72 211.62 170.00 213.00
C 174.23 210.04 177.25 205.47 181.00 202.00
C 178.34 203.86 175.28 206.63 173.00 209.00 Z"/>
</g>
<g fill="#A6A6A3" fill-opacity="0.37" stroke="None">
<path d="
M 155.00 210.00 
C 155.99 208.03 157.43 206.43 158.00 204.00
C 156.51 205.86 155.85 207.70 155.00 210.00 Z"/>
</g>
<g fill="#B7B7B6" fill-opacity="0.28" stroke="None">
<path d="
M 243.00 219.00 
C 245.69 215.68 248.28 208.37 250.00 204.00
C 246.27 206.33 243.16 214.73 243.00 219.00 Z"/>
</g>
<g fill="#BFC1BE" fill-opacity="0.24" stroke="None">
<path d="
M 301.00 224.00 
C 303.15 218.94 302.23 210.17 301.00 205.00
C 301.65 211.18 301.00 217.78 301.00 224.00 Z"/>
</g>
<g fill="#D7D7D5" fill-opacity="0.17" stroke="None">
<path d="
M 277.00 230.00 
C 281.73 224.10 287.36 213.31 290.00 206.00
C 284.54 211.23 278.75 222.55 277.00 230.00 Z"/>
</g>
<g fill="#A8A8A8" fill-opacity="0.34" stroke="None">
<path d="
M 304.00 222.00 
C 304.50 217.29 306.06 210.84 304.00 206.00
C 304.00 211.33 304.00 216.67 304.00 222.00 Z"/>
</g>
<g fill="#CDCFCC" fill-opacity="0.20" stroke="None">
<path d="
M 340.00 218.00 
C 341.07 213.87 341.74 210.38 342.00 206.00
C 341.51 209.34 340.35 215.14 340.00 218.00 Z"/>
</g>
<g fill="#C8C8C7" fill-opacity="0.21" stroke="None">
<path d="
M 305.00 237.00 
C 311.02 229.97 314.19 215.84 318.00 207.00
C 318.00 207.00 317.12 206.78 317.00 207.00
C 312.90 216.50 306.67 226.77 305.00 237.00 Z"/>
</g>
<g fill="#C2C1C0" fill-opacity="0.24" stroke="None">
<path d="
M 367.00 221.00 
C 365.94 217.14 365.62 213.05 363.00 210.00
C 363.64 213.91 365.72 217.62 367.00 221.00 Z"/>
</g>
<g fill="#D3D3D3" fill-opacity="0.18" stroke="None">
<path d="
M 164.00 227.00 
C 164.00 220.50 165.85 216.69 168.00 211.00
C 165.00 214.60 160.65 222.48 164.00 227.00 Z"/>
</g>
<g fill="#BCBDBB" fill-opacity="0.26" stroke="None">
<path d="
M 279.00 232.00 
C 282.78 225.51 287.16 218.24 290.00 211.00
C 284.67 214.33 281.41 226.41 279.00 232.00 Z"/>
</g>
<g fill="#C3C3C0" fill-opacity="0.25" stroke="None">
<path d="
M 166.00 221.00 
C 166.43 219.13 169.15 216.17 170.00 214.00
C 167.80 215.37 166.34 218.46 166.00 221.00 Z"/>
</g>
<g fill="#BABBBA" fill-opacity="0.27" stroke="None">
<path d="
M 266.00 222.00 
C 267.27 219.69 267.93 216.98 268.00 214.00
C 266.73 216.31 266.07 219.02 266.00 222.00 Z"/>
</g>
<g fill="#C6C7C5" fill-opacity="0.22" stroke="None">
<path d="
M 311.00 229.00 
C 313.11 224.74 315.85 219.91 317.00 215.00
C 313.61 218.46 312.16 225.51 311.00 229.00 Z"/>
</g>
<g fill="#AEAFAB" fill-opacity="0.34" stroke="None">
<path d="
M 150.00 227.00 
C 150.69 224.77 151.53 222.71 152.00 220.00
C 151.42 222.04 150.47 224.54 150.00 227.00 Z"/>
</g>
<g fill="#BDBFBE" fill-opacity="0.26" stroke="None">
<path d="
M 241.00 232.00 
C 239.66 228.22 240.00 224.11 240.00 220.00
C 238.12 222.54 238.14 229.81 241.00 232.00 Z"/>
</g>
<g fill="#B5B5B3" fill-opacity="0.30" stroke="None">
<path d="
M 251.00 237.00 
C 244.20 231.54 243.00 229.55 243.00 220.00
C 238.13 226.56 244.36 235.44 251.00 237.00 Z"/>
</g>
<g fill="#C1C2BC" fill-opacity="0.25" stroke="None">
<path d="
M 261.00 244.00 
C 263.82 238.83 265.85 229.23 266.00 223.00
C 263.18 228.16 261.15 237.77 261.00 244.00 Z"/>
</g>
<g fill="#AEAFAA" fill-opacity="0.33" stroke="None">
<path d="
M 300.00 235.00 
C 300.23 232.64 301.00 229.10 301.00 226.00
C 299.87 228.66 300.00 231.68 300.00 235.00 Z"/>
</g>
<g fill="#A9A5A2" fill-opacity="0.36" stroke="None">
<path d="
M 302.00 242.00 
C 302.06 242.41 303.01 244.08 303.00 244.00
C 304.00 242.21 304.68 239.98 305.00 238.00
C 303.56 237.94 304.26 239.92 303.00 240.00
C 303.74 235.64 304.00 231.57 304.00 227.00
C 303.53 231.39 302.54 237.07 302.00 242.00 Z"/>
</g>
<g fill="#CCCDCA" fill-opacity="0.19" stroke="None">
<path d="
M 171.00 235.00 
C 168.82 232.72 165.76 230.75 164.00 228.00
C 164.62 231.18 167.99 233.91 171.00 235.00 Z"/>
</g>
<g fill="#D1D1CD" fill-opacity="0.19" stroke="None">
<path d="
M 271.00 244.00 
C 273.62 240.73 276.01 235.22 277.00 231.00
C 274.25 234.43 272.03 239.61 271.00 244.00 Z"/>
</g>
<g fill="#D9D9D8" fill-opacity="0.15" stroke="None">
<path d="
M 255.00 240.00 
C 249.59 239.76 245.53 236.17 241.00 233.00
C 243.50 238.10 249.68 240.44 255.00 240.00 Z"/>
</g>
<g fill="#D4D4D2" fill-opacity="0.18" stroke="None">
<path d="
M 183.00 240.00 
C 180.08 237.66 175.76 235.88 172.00 235.00
C 174.92 237.34 179.24 239.12 183.00 240.00 Z"/>
</g>
<g fill="#D6D6D2" fill-opacity="0.15" stroke="None">
<path d="
M 258.00 239.00 
C 260.24 236.73 253.44 236.84 252.00 237.00
C 252.56 237.26 258.11 238.37 258.00 239.00 Z"/>
</g>
<g fill="#CCCDCA" fill-opacity="0.20" stroke="None">
<path d="
M 224.00 250.00 
C 229.54 245.96 235.68 240.95 241.00 239.00
C 240.57 236.36 233.97 242.18 232.08 243.08 C 230.19 243.99 225.82 248.32 224.00 250.00 Z"/>
</g>
<g fill="#E5E3E1" fill-opacity="0.10" stroke="None">
<path d="
M 370.00 262.00 
C 371.06 254.56 371.07 245.51 370.00 238.00
C 370.30 245.92 370.30 254.08 370.00 262.00 Z"/>
</g>
<g fill="#C2C2C1" fill-opacity="0.23" stroke="None">
<path d="
M 197.00 246.00 
C 193.57 243.25 188.39 241.03 184.00 240.00
C 187.27 242.62 192.78 245.01 197.00 246.00 Z"/>
</g>
<g fill="#B6B6B3" fill-opacity="0.28" stroke="None">
<path d="
M 219.00 253.00 
C 213.27 255.80 203.05 244.26 196.00 242.00
C 203.29 245.68 210.24 251.33 217.00 256.00
C 217.54 255.25 218.21 253.55 219.00 253.00 Z"/>
</g>
<g fill="#D1D2D0" fill-opacity="0.20" stroke="None">
<path d="
M 217.00 258.00 
C 223.77 252.89 233.31 248.53 239.00 242.00
C 236.04 244.70 230.21 246.43 227.75 249.75 C 225.28 253.06 218.38 254.23 217.00 258.00 Z"/>
</g>
<g fill="#F1EFEA" fill-opacity="0.09" stroke="None">
<path d="
M 303.00 244.00 
C 303.01 244.08 302.06 242.41 302.00 242.00
C 300.06 242.78 301.39 245.43 301.00 247.00
C 302.79 247.04 302.52 244.86 303.00 244.00 Z"/>
</g>
<g fill="#C3C3C0" fill-opacity="0.25" stroke="None">
<path d="
M 259.00 253.00 
C 260.26 250.69 260.93 247.98 261.00 245.00
C 259.73 247.31 259.07 250.02 259.00 253.00 Z"/>
</g>
<g fill="#CECFCE" fill-opacity="0.18" stroke="None">
<path d="
M 266.00 257.00 
C 268.40 254.20 270.38 248.79 271.00 245.00
C 268.60 247.80 266.62 253.21 266.00 257.00 Z"/>
</g>
<g fill="#B0B0AB" fill-opacity="0.31" stroke="None">
<path d="
M 206.00 251.00 
C 204.47 248.56 200.68 247.05 198.00 246.00
C 199.52 248.44 203.32 249.95 206.00 251.00 Z"/>
</g>
<g fill="#BCBBBA" fill-opacity="0.27" stroke="None">
<path d="
M 270.00 254.00 
C 270.73 252.66 271.48 251.66 272.00 250.00
C 271.50 251.12 270.54 252.65 270.00 254.00 Z"/>
</g>
<g fill="#CBCAC4" fill-opacity="0.21" stroke="None">
<path d="
M 213.00 257.00 
C 212.06 254.58 209.43 251.94 207.00 251.00
C 208.60 253.29 210.66 255.36 213.00 257.00 Z"/>
</g>
<g fill="#D6D7D4" fill-opacity="0.16" stroke="None">
<path d="
M 332.00 262.00 
C 332.70 259.31 333.58 256.19 334.00 253.00
C 333.27 255.85 332.46 258.55 332.00 262.00 Z"/>
</g>
<g fill="#C4C5C3" fill-opacity="0.24" stroke="None">
<path d="
M 254.00 276.00 
C 255.72 269.26 258.83 261.48 259.00 254.00
C 255.78 259.89 255.01 269.09 254.00 276.00 Z"/>
</g>
<g fill="#C1C1BF" fill-opacity="0.25" stroke="None">
<path d="
M 214.00 276.00 
C 207.99 283.49 202.43 292.34 194.75 298.75 C 187.07 305.15 169.25 311.03 172.08 299.08 C 174.91 287.12 185.38 285.72 190.92 276.92 C 196.46 268.11 208.91 267.03 213.00 258.00
C 205.33 264.71 195.86 268.90 189.25 277.25 C 182.64 285.60 172.92 288.59 170.33 300.33 C 167.74 312.07 189.82 306.52 195.25 299.25 C 200.68 291.98 213.05 286.12 214.00 276.00 Z"/>
</g>
<g fill="#D3D3D2" fill-opacity="0.17" stroke="None">
<path d="
M 263.00 265.00 
C 264.63 263.10 265.57 260.60 266.00 258.00
C 264.37 259.90 263.43 262.40 263.00 265.00 Z"/>
</g>
<g fill="#CFCFCD" fill-opacity="0.20" stroke="None">
<path d="
M 175.00 298.00 
C 176.20 296.11 178.50 293.90 180.00 292.00
C 184.57 286.21 190.45 280.74 196.00 276.00
C 201.72 271.12 207.62 265.46 214.00 262.00
C 213.48 271.42 209.02 279.84 203.00 287.00
C 203.16 286.77 204.00 287.00 204.00 287.00
C 210.11 279.53 215.09 270.92 215.00 261.00
C 202.01 270.45 182.44 282.05 175.00 298.00 Z"/>
</g>
<g fill="#1F2220" fill-opacity="0.99" stroke="None">
<path d="
M 196.00 276.00 
C 190.81 281.19 184.92 286.68 180.00 292.00
C 178.50 293.90 176.20 296.11 175.00 298.00
C 174.50 299.06 174.34 299.94 174.00 301.00
C 173.99 302.00 174.01 303.00 174.00 304.00
C 180.56 304.90 185.72 300.95 191.00 298.00
C 191.00 298.00 191.61 298.21 192.00 298.00
C 194.99 293.72 199.58 290.70 203.00 287.00
C 209.02 279.84 213.48 271.42 214.00 262.00
C 207.62 265.46 201.72 271.12 196.00 276.00 Z"/>
</g>
<g fill="#B2B4B0" fill-opacity="0.29" stroke="None">
<path d="
M 299.00 266.00 
C 296.11 266.18 298.89 269.69 296.00 269.00
C 296.00 267.33 296.01 265.67 296.00 264.00
C 293.94 265.07 295.47 268.12 295.00 270.00
C 298.62 271.02 298.30 268.06 299.00 266.00 Z"/>
</g>
<g fill="#C4C4C0" fill-opacity="0.23" stroke="None">
<path d="
M 258.00 279.00 
C 260.58 276.00 262.34 270.03 263.00 266.00
C 260.42 269.00 258.66 274.97 258.00 279.00 Z"/>
</g>
<g fill="#BDBDBB" fill-opacity="0.27" stroke="None">
<path d="
M 260.00 282.00 
C 262.33 277.01 264.51 271.59 266.00 266.00
C 263.88 270.97 261.99 276.19 260.00 282.00 Z"/>
</g>
<g fill="#C1C1C0" fill-opacity="0.24" stroke="None">
<path d="
M 214.00 275.00 
C 215.27 273.77 215.56 272.75 216.00 271.00
C 215.52 272.31 214.12 273.13 214.00 275.00 Z"/>
</g>
<g fill="#BCBCB9" fill-opacity="0.26" stroke="None">
<path d="
M 363.00 290.00 
C 365.00 285.14 366.95 280.52 368.00 275.00
C 366.55 279.65 364.47 285.01 363.00 290.00 Z"/>
</g>
<g fill="#52524E" fill-opacity="0.76" stroke="None">
<path d="
M 180.00 292.00 
C 184.92 286.68 190.81 281.19 196.00 276.00
C 190.45 280.74 184.57 286.21 180.00 292.00 Z"/>
</g>
<g fill="#BBBAB7" fill-opacity="0.27" stroke="None">
<path d="
M 256.00 281.00 
C 254.92 283.47 252.89 288.48 255.00 291.00
C 254.83 286.93 257.92 283.96 258.00 280.00
C 257.45 281.40 256.43 284.00 256.00 281.00 Z"/>
</g>
<g fill="#B1B1B0" fill-opacity="0.31" stroke="None">
<path d="
M 325.00 289.00 
C 325.15 287.47 325.75 284.16 326.00 282.00
C 325.58 283.99 325.05 286.36 325.00 289.00 Z"/>
</g>
<g fill="#777874" fill-opacity="0.57" stroke="None">
<path d="
M 192.00 298.00 
C 193.38 297.28 194.77 296.01 196.00 295.00
C 198.37 292.72 201.14 289.66 203.00 287.00
C 199.58 290.70 194.99 293.72 192.00 298.00 Z"/>
</g>
<g fill="#FFFFFF" fill-opacity="0.05" stroke="None">
<path d="
M 196.00 295.00 
C 198.89 292.63 201.64 289.99 204.00 287.00
C 204.00 287.00 203.16 286.77 203.00 287.00
C 201.14 289.66 198.37 292.72 196.00 295.00 Z"/>
</g>
<g fill="#C8C9C6" fill-opacity="0.22" stroke="None">
<path d="
M 325.00 297.00 
C 325.38 303.01 331.99 297.10 332.00 294.00
C 328.76 292.61 328.81 294.57 328.00 291.00
C 325.14 293.42 328.38 296.09 331.00 294.00
C 330.85 296.90 326.68 300.82 325.00 297.00 Z"/>
</g>
<g fill="#B3B2AF" fill-opacity="0.31" stroke="None">
<path d="
M 174.00 301.00 
C 172.24 301.50 173.28 303.72 173.00 305.00
C 179.91 305.74 186.48 302.72 191.00 298.00
C 185.72 300.95 180.56 304.90 174.00 304.00
C 174.01 303.00 173.99 302.00 174.00 301.00 Z"/>
</g>
<g fill="#B8B7B5" fill-opacity="0.28" stroke="None">
<path d="
M 357.00 303.00 
C 357.86 301.45 359.09 299.89 360.00 298.00
C 359.02 299.63 357.90 300.98 357.00 303.00 Z"/>
</g>
<g fill="#B1B2AF" fill-opacity="0.22" stroke="None">
<path d="
M 252.00 309.00 
C 250.56 308.94 251.26 310.92 250.00 311.00
C 249.71 306.03 249.27 310.38 248.00 312.00
C 248.03 310.67 247.96 309.33 248.00 308.00
C 245.31 309.61 247.98 314.27 251.00 313.00
C 251.25 311.67 251.52 310.21 252.00 309.00 Z"/>
</g>
<g fill="#C2C3C1" fill-opacity="0.23" stroke="None">
<path d="
M 343.00 323.00 
C 343.52 322.52 344.51 322.40 345.00 322.00
C 348.31 317.81 351.21 313.51 354.00 309.00
C 350.59 313.40 347.14 318.86 343.00 323.00 Z"/>
</g>
<g fill="#B7B8B3" fill-opacity="0.28" stroke="None">
<path d="
M 172.00 319.00 
C 170.69 315.38 167.20 312.85 165.00 310.00
C 166.95 313.16 168.77 316.89 172.00 319.00 Z"/>
</g>
<g fill="#B5B4B2" fill-opacity="0.30" stroke="None">
<path d="
M 191.00 338.00 
C 184.44 332.93 179.05 324.93 172.00 320.00
C 175.66 327.50 184.83 333.27 191.00 338.00 Z"/>
</g>
<g fill="#F1F3EF" fill-opacity="0.06" stroke="None">
<path d="
M 343.00 323.00 
C 339.26 326.49 336.23 331.04 332.00 334.00
C 331.77 334.16 332.00 335.00 332.00 335.00
C 336.53 331.13 341.25 326.75 345.00 322.00
C 344.51 322.40 343.52 322.52 343.00 323.00 Z"/>
</g>
<g fill="#494A48" fill-opacity="0.78" stroke="None">
<path d="
M 332.00 334.00 
C 336.23 331.04 339.26 326.49 343.00 323.00
C 339.46 326.54 335.59 330.41 332.00 334.00 Z"/>
</g>
<g fill="#B9BCB8" fill-opacity="0.24" stroke="None">
<path d="
M 253.00 342.00 
C 252.66 342.81 252.48 328.99 253.00 330.00
C 252.23 328.73 251.34 329.25 250.00 329.00
C 248.65 328.22 247.28 327.70 246.00 329.00
C 248.11 333.53 246.49 339.04 247.00 344.00
C 249.90 344.69 251.24 343.66 253.00 342.00
M 249.00 331.00 
C 250.12 331.26 250.14 329.28 251.00 331.00
C 252.00 333.00 251.34 340.71 250.00 342.00
C 249.74 342.25 249.00 342.00 249.00 342.00
C 247.42 343.05 248.84 330.99 247.00 329.00
C 248.41 328.49 249.15 329.81 249.00 331.00 Z"/>
</g>
<g fill="#686764" fill-opacity="0.67" stroke="None">
<path d="
M 250.00 329.00 
C 251.34 329.25 252.23 328.73 253.00 330.00
C 254.78 332.94 251.59 338.83 253.00 342.00
C 253.26 341.75 254.84 341.77 255.00 342.00
C 255.00 339.42 255.36 336.55 255.00 334.00
C 254.36 329.51 253.30 329.10 250.00 329.00 Z"/>
</g>
<g fill="#000000" fill-opacity="0.00" stroke="None">
<path d="
M 249.00 342.00 
C 248.67 338.43 249.65 334.52 249.00 331.00
C 249.15 329.81 248.41 328.49 247.00 329.00
C 248.84 330.99 247.42 343.05 249.00 342.00 Z"/>
</g>
<g fill="#4D4E4C" fill-opacity="0.77" stroke="None">
<path d="
M 249.00 331.00 
C 249.65 334.52 248.67 338.43 249.00 342.00
C 249.00 342.00 249.74 342.25 250.00 342.00
C 250.18 340.05 251.26 331.78 251.00 331.00
C 250.14 329.28 250.12 331.26 249.00 331.00 Z"/>
</g>
<g fill="#000000" fill-opacity="0.00" stroke="None">
<path d="
M 253.00 342.00 
C 251.59 338.83 254.78 332.94 253.00 330.00
C 252.48 328.99 252.66 342.81 253.00 342.00 Z"/>
</g>
<g fill="#1E1F1B" fill-opacity="1.00" stroke="None">
<path d="
M 250.00 342.00 
C 251.34 340.71 252.00 333.00 251.00 331.00
C 251.26 331.78 250.18 340.05 250.00 342.00 Z"/>
</g>
<g fill="#A8A8A7" fill-opacity="0.35" stroke="None">
<path d="
M 255.00 334.00 
C 255.02 333.75 255.94 336.62 256.00 337.00
C 256.28 336.71 258.73 336.69 259.00 336.00
C 258.87 335.54 259.00 334.50 259.00 334.00
C 259.00 333.50 258.77 332.34 259.00 332.00
C 257.65 331.72 255.15 332.22 255.00 334.00 Z"/>
</g>
<g fill="#454643" fill-opacity="0.63" stroke="None">
<path d="
M 259.00 334.00 
C 260.54 334.45 260.12 336.75 262.00 337.00
C 261.91 336.01 262.12 334.99 262.00 334.00
C 261.76 333.74 260.90 333.18 261.00 333.00
C 260.84 333.29 259.21 332.04 259.00 332.00
C 258.77 332.34 259.00 333.50 259.00 334.00 Z"/>
</g>
<g fill="#B2B4B2" fill-opacity="0.20" stroke="None">
<path d="
M 261.00 333.00 
C 260.90 333.18 261.76 333.74 262.00 334.00
C 264.80 335.76 259.73 340.09 263.00 342.00
C 263.58 337.55 265.63 333.10 261.00 333.00 Z"/>
</g>
<g fill="#747674" fill-opacity="0.57" stroke="None">
<path d="
M 265.00 339.00 
C 265.15 338.77 266.00 339.00 266.00 339.00
C 265.98 337.00 266.00 335.00 266.00 333.00
C 266.00 332.50 266.00 332.00 266.00 332.00
C 264.57 333.37 264.61 336.88 265.00 339.00 Z"/>
</g>
<g fill="#A6A7A5" fill-opacity="0.36" stroke="None">
<path d="
M 266.00 333.00 
C 268.31 333.67 265.80 337.26 268.00 338.00
C 267.60 335.69 269.20 332.18 266.00 332.00
C 266.00 332.00 266.00 332.50 266.00 333.00 Z"/>
</g>
<g fill="#000000" fill-opacity="0.00" stroke="None">
<path d="
M 255.00 342.00 
C 255.00 342.00 254.76 342.82 255.00 343.00
C 256.52 341.06 256.36 339.18 256.00 337.00
C 255.94 336.62 255.02 333.75 255.00 334.00
C 255.36 336.55 255.00 339.42 255.00 342.00 Z"/>
</g>
<g fill="#B9B9B7" fill-opacity="0.27" stroke="None">
<path d="
M 313.00 348.00 
C 319.78 344.83 326.24 339.92 332.00 335.00
C 332.00 335.00 331.77 334.16 332.00 334.00
C 326.75 339.25 319.04 344.15 313.00 348.00 Z"/>
</g>
<g fill="#D2D2D1" fill-opacity="0.18" stroke="None">
<path d="
M 256.00 337.00 
C 256.36 339.18 256.52 341.06 255.00 343.00
C 255.78 344.94 258.43 343.61 260.00 344.00
C 258.72 340.87 258.61 339.36 257.00 343.00
C 255.83 339.80 259.55 337.93 259.00 336.00
C 258.73 336.69 256.28 336.71 256.00 337.00 Z"/>
</g>
<g fill="#CFCFCD" fill-opacity="0.18" stroke="None">
<path d="
M 214.00 352.00 
C 207.23 346.57 198.16 343.54 191.00 338.00
C 197.86 343.26 205.21 349.94 214.00 352.00 Z"/>
</g>
<g fill="#CFCFCE" fill-opacity="0.18" stroke="None">
<path d="
M 266.00 339.00 
C 266.00 339.00 265.15 338.77 265.00 339.00
C 263.91 340.55 264.13 342.47 263.00 344.00
C 266.80 343.68 266.02 341.15 266.00 339.00 Z"/>
</g>
<g fill="#C1C1C0" fill-opacity="0.25" stroke="None">
<path d="
M 297.00 355.00 
C 301.71 353.39 305.70 351.04 310.00 349.00
C 305.43 350.45 301.11 353.08 297.00 355.00 Z"/>
</g>
<g fill="#ABABA8" fill-opacity="0.35" stroke="None">
<path d="
M 219.00 354.00 
C 217.91 352.87 216.73 352.11 215.00 352.00
C 216.09 353.13 217.27 353.89 219.00 354.00 Z"/>
</g>
<g fill="#C7C7C6" fill-opacity="0.22" stroke="None">
<path d="
M 231.00 358.00 
C 228.55 356.01 223.30 354.54 220.00 354.00
C 222.61 356.24 227.39 357.86 231.00 358.00 Z"/>
</g>
<g fill="#C9C9C7" fill-opacity="0.21" stroke="None">
<path d="
M 240.00 360.00 
C 237.70 359.39 234.74 358.45 232.00 358.00
C 234.43 359.97 236.86 359.50 240.00 360.00 Z"/>
</g>
<g fill="#BCBCBB" fill-opacity="0.27" stroke="None">
<path d="
M 278.00 360.00 
C 281.08 359.53 283.44 358.70 286.00 358.00
C 283.22 358.44 280.35 359.39 278.00 360.00 Z"/>
</g>
<g fill="#FEFEFE" fill-opacity="0.02" stroke="None">
<path d="
M 267.00 361.00 
C 261.00 361.00 255.00 361.00 249.00 361.00
C 254.60 361.54 261.33 361.55 267.00 361.00 Z"/>
</g>
</svg>